<svg width="128" height="128" version="1.1" viewBox="0 0 512 512" xmlns="http://www.w3.org/2000/svg">
 <g fill="#BDBDBD">
  <path d="m436.9 414.24c-6.24-6.24-16.352-6.208-22.624 0.032-6.528 6.528-13.664 12.768-21.056 18.4-7.072 5.344-8.448 15.36-3.104 22.4 3.168 4.16 7.936 6.336 12.736 6.336 3.36 0 6.784-1.056 9.664-3.264 8.48-6.4 16.672-13.568 24.384-21.28 6.24-6.24 6.24-16.384 0-22.624z"/>
  <path d="m121.86 56.896c-5.344-7.072-15.392-8.416-22.4-3.072-8.608 6.528-16.8 13.664-24.384 21.28-6.24 6.24-6.24 16.384 0.032 22.624 3.136 3.104 7.2 4.672 11.296 4.672s8.192-1.568 11.328-4.704c6.528-6.528 13.664-12.768 21.056-18.4 7.04-5.344 8.416-15.36 3.072-22.4z"/>
  <path d="m391.71 369.09c-6.208-6.24-16.416-6.112-22.624 0.128-3.168 3.2-6.656 6.4-10.432 9.568-6.752 5.728-7.616 15.808-1.952 22.56 3.2 3.744 7.68 5.696 12.256 5.696 3.648 0 7.328-1.248 10.304-3.744 4.544-3.84 8.704-7.68 12.576-11.552 6.208-6.272 6.144-16.416-0.128-22.656z"/>
  <path d="m155.3 110.59c-5.728-6.72-15.808-7.552-22.592-1.856-4.512 3.84-8.672 7.648-12.48 11.424-6.24 6.24-6.272 16.384-0.064 22.624 3.136 3.168 7.232 4.736 11.36 4.736 4.064 0 8.16-1.536 11.296-4.672 3.264-3.232 6.752-6.464 10.592-9.696 6.72-5.728 7.584-15.808 1.888-22.56z"/>
  <path d="m493.31 160.29c-12.64-31.904-31.552-60.576-56.288-85.312-16.096-16.064-33.984-29.408-53.152-40.448-2.784-1.632-5.472-3.392-8.32-4.896-1.344-0.704-2.752-1.248-4.096-1.952-35.392-17.952-74.656-27.68-115.46-27.68-39.68 0-77.728 8.96-113.09 26.656-7.904 3.936-11.104 13.536-7.136 21.44s13.536 11.104 21.472 7.168c30.848-15.424 64.096-23.264 98.752-23.264 24.768 0 48.864 4.224 71.68 11.968-2.176 11.136-5.12 21.504-8.992 30.848-46.144-15.968-97.024-13.92-141.25 5.952-8.064 3.616-11.648 13.088-8.032 21.152 2.656 5.92 8.512 9.44 14.592 9.44 2.176 0 4.416-0.448 6.56-1.408 35.04-15.744 75.008-17.344 112-6.016-41.248 57.28-112.61 67.808-116.58 68.352-7.136 0.96-12.8 6.624-13.728 13.792-0.16 1.28-18.368 129.06-140.64 143.94-4.896 0.608-9.28 3.424-11.808 7.68s-2.944 9.472-1.12 14.048c12.576 31.84 31.52 60.544 56.288 85.312 16.192 16.192 34.272 29.664 53.664 40.736 2.592 1.504 5.088 3.136 7.744 4.544 1.44 0.768 2.976 1.376 4.448 2.112 35.328 17.888 74.496 27.552 115.17 27.552 39.648 0 77.696-8.96 113.06-26.656 7.904-3.968 11.104-13.568 7.168-21.472-3.968-7.904-13.536-11.168-21.472-7.168-30.912 15.456-64.128 23.296-98.752 23.296-24.768 0-48.832-4.224-71.648-11.968 2.176-11.136 5.088-21.472 8.96-30.784 20.224 7.04 41.216 10.752 62.688 10.752 27.36 0 53.824-5.664 78.56-16.768 8.064-3.616 11.648-13.088 8.032-21.152-3.616-8.096-13.152-11.712-21.152-8.032-35.008 15.776-74.944 17.408-112 6.08 41.216-57.28 112.58-67.84 116.54-68.384 7.168-0.96 12.8-6.592 13.76-13.76 0.16-1.312 18.336-129.06 140.64-143.9 4.896-0.608 9.28-3.456 11.808-7.712 2.528-4.288 2.944-9.472 1.12-14.08zm-203.36 129.66c-9.376 9.344-21.664 14.016-33.952 14.016s-24.576-4.672-33.952-14.016c-18.72-18.72-18.72-49.152 0-67.872s49.152-18.72 67.872 0 18.752 49.152 0.032 67.872z"/>
 </g>
</svg>
