<svg xmlns="http://www.w3.org/2000/svg" version="1.1" viewBox="0 0 314.27 405.35" width="32" height="41">
 <path d="m0 0v314.29h98.864l58.259 91.058 58.269-91.058h98.874v-314.29z" fill="#FF6F00" fill-opacity="1"/>
 <g transform="matrix(1.1866 0 0 1.1866 -56.282 -49.025)" fill="#F5F5F5" stroke-width=".31693">
  <path d="m234.29 121.2h-46.925l6.5029-21.068h25.777c2.6949 0 4.882-2.3596 4.882-5.2669 0-2.9074-2.1871-5.2669-4.882-5.2669h-29.292c-2.0993 0-3.9642 1.4536-4.6379 3.6026l-8.651 27.999h-50.179c-2.6949 0-4.882 2.3596-4.882 5.2669v15.801c0 33.076 23.678 60.245 53.702 62.94v42.399h-19.528c-2.6949 0-4.882 2.3596-4.882 5.2669 0 2.9074 2.1871 5.2669 4.882 5.2669h48.82c2.6949 0 4.882-2.3596 4.882-5.2669 0-2.9074-2.1871-5.2669-4.882-5.2669h-19.528v-42.399c30.025-2.6966 53.702-29.864 53.702-62.94v-15.801c0-2.9074-2.1871-5.2669-4.882-5.2669zm-4.882 21.068h-97.637v-10.534h97.637z" fill="#F5F5F5"/>
  <path d="m126.22 92.91c-16.18 0-29.292 14.147-29.292 31.602 0 14.032 8.5241 25.776 20.25 29.906-0.33198-2.9179-0.72253-5.8358-0.72253-8.838v-15.801c0-8.7116 6.5712-15.801 14.647-15.801h22.614c-4.0325-12.251-14.763-21.068-27.496-21.068z" fill="#F5F5F5"/>
 </g>
</svg>