<svg xmlns="http://www.w3.org/2000/svg" version="1.1" viewBox="0 0 314.27 405.35" width="32" height="41">
 <path d="m0 0v314.29h98.864l58.259 91.058 58.269-91.058h98.874v-314.29z" fill="#FF6F00" fill-opacity="1"/>
 <path d="m157.13 50.39v19.999h40l-9.9997-9.9997 9.9997-9.9997zm0 30 70 70v19.999s2.4401 10 14.999 10c12.559 0 14.999-10 14.999-10v-19.999zl9.9997 70v19.999s4.96 10 19.999 10c15.039 0 19.999-10 19.999-10v-19.999zl-49.999 70v19.999s4.9601 10 19.999 10c15.039 0 19.999-10 19.999-10v-19.999zl-99.997 70v19.999s2.4401 10 14.999 10c12.559 0 14.999-10 14.999-10v-19.999zm-59.999 99.997s-9.9199 9.9997-24.999 9.9997c-2.15 0-4.1072-0.25476-5.9376-0.62511l-9.0624 70.626h70l9.9997-40h40l9.9997 40h70l-9.0624-70.626c-1.83 0.37035-3.7875 0.62511-5.9374 0.62511-17.37 0-24.999-9.9997-24.999-9.9997s-11.48 9.9997-30 9.9997c-15.97 0-30.001-9.9997-30.001-9.9997s-14.11 9.9997-30.001 9.9997c-18.259 0-30.001-9.9997-30.001-9.9997z" fill="#F5F5F5" stroke-width="9.9997"/>
</svg>