<svg xmlns="http://www.w3.org/2000/svg" version="1.1" viewBox="0 0 314.27 405.35" width="32" height="41">
 <path d="m0 0v314.29h98.864l58.259 91.058 58.269-91.058h98.874v-314.29z" fill="#FF6F00" fill-opacity="1"/>
 <g transform="matrix(.39062 0 0 .39062 57.137 56.61)" fill="#F5F5F5">
  <path d="m469.33 106.67h-106.67v-21.334c0-23.531-19.135-42.667-42.667-42.667h-128c-23.531 0-42.667 19.135-42.667 42.667v21.333h-106.67c-23.532 1e-3 -42.667 19.136-42.667 42.667v64c0 23.532 19.135 42.667 42.667 42.667h170.67v-10.667c0-5.896 4.771-10.667 10.667-10.667h64c5.896 0 10.667 4.771 10.667 10.667v10.667h170.67c23.53 0 42.665-19.135 42.665-42.667v-64c0-23.531-19.135-42.666-42.667-42.666zm-149.33 0h-128v-21.334h128z" fill="#F5F5F5"/>
  <path d="m506.08 267.51c-3.635-1.802-7.979-1.385-11.188 1.052-7.583 5.74-16.417 8.771-25.563 8.771h-170.66v32c0 5.896-4.771 10.667-10.667 10.667h-64c-5.896 0-10.667-4.771-10.667-10.667v-32h-170.67c-9.146 0-17.979-3.031-25.563-8.771-3.219-2.458-7.552-2.875-11.188-1.052-3.624 1.803-5.916 5.5-5.916 9.553v149.6c0 23.531 19.135 42.667 42.667 42.667h426.67c23.531 0 42.667-19.135 42.667-42.667v-149.6c-1e-3 -4.053-2.293-7.75-5.918-9.553z" fill="#F5F5F5"/>
 </g>
</svg>