<svg xmlns="http://www.w3.org/2000/svg" version="1.1" viewBox="0 0 314.27 405.35" width="32" height="41">
 <path d="m0 0v314.29h98.864l58.259 91.058 58.269-91.058h98.874v-314.29z" fill="#FF6F00" fill-opacity="1"/>
 <path d="m120.41 55.24v49.219c0 2.4999-2.4478 4.948-4.9477 4.948s-4.9479-2.448-4.9479-4.948v-48.437c-8.3333 0.83388-12.5 1.8231-12.5 1.8231s-3.3854 38.177-3.3854 60.677c0 24.999 24.999 25.155 24.999 35.157 0 8.3339-8.3333 59.894-8.3333 84.894 0 9.1671 7.5002 16.667 16.668 16.667 9.1664 0 16.667-7.5002 16.667-16.667 0-24.999-8.3333-76.77-8.3333-85.935 0-9.1664 24.999-9.1145 24.999-34.114 0-14.166-2.604-60.677-2.604-60.677s-4.1146-0.98953-13.281-1.8228v49.219c0 2.4999-2.4479 4.9478-4.9478 4.9478-3.3332 0-4.9479-2.4478-4.9479-4.9478v-49.999h-7.5516zm99.219 0c-16.667 0-41.667 49.999-41.667 95.834 0 0 20.833 15 20.833 29.166 0 25.833-12.5 39.999-12.5 58.333 0 9.1664 7.5002 16.667 16.667 16.667 9.1665 0 16.667-7.5002 16.667-16.667z" fill="#F5F5F5" stroke-width="8.3333"/>
</svg>