<svg xmlns="http://www.w3.org/2000/svg" version="1.1" viewBox="0 0 314.27 405.35" width="32" height="41">
 <path d="m0 0v314.29h98.864l58.259 91.058 58.269-91.058h98.874v-314.29z" fill="#FF6F00" fill-opacity="1"/>
 <g transform="matrix(.67659 0 0 .67659 57.129 56.674)" fill="#F5F5F5">
  <path d="m265.94 94.98h-68.327c-2.424 19.732-12.289 37.804-27.902 50.606-1.487 1.22-3.283 1.813-5.067 1.813-2.314 0-4.609-0.998-6.191-2.928-2.801-3.416-2.303-8.457 1.114-11.259 14.387-11.797 22.639-29.221 22.639-47.804 0-34.068-27.716-61.785-61.783-61.785-31.873 0-58.182 24.26-61.441 55.283-3.953 2.287-7.626 5.008-10.93 8.157-1.22 1.163-2.361 2.364-3.445 3.591-13.82 15.65-16.857 36.116-16.857 51.041 0 6.395 0.17 12.796 0.335 18.987 0.493 18.569 1.107 41.68-5.024 47.977-0.475 0.486-1.917 1.968-7.055 1.968-8.837 0-16 7.163-16 16s7.163 16 16 16c12.37 0 22.457-3.917 29.98-11.643 10.047-10.317 13.303-25.156 14.148-42.017 1.896 0.056 3.912 0.091 6.038 0.091 15.958 0 37.519-1.92 54.603-10.49 0 0-1.167 7.399-1.167 9.491v63.672c0 11.379 10.748 20.248 22.143 20.248h0.304c11.396 0 20.553-8.869 20.553-20.248v-32.751h76v33.012c0 11.234 9.44 19.988 20.676 19.988h0.314c11.235 0 20.01-8.754 20.01-19.988v-36.479c10-5.031 16-15.023 16-26.533v-64c-1e-3 -16.569-13.1-30-29.668-30zm-206.94 46.25c0-4.168 3.377-7.547 7.545-7.547s7.546 3.379 7.546 7.547c0 4.166-3.378 7.545-7.546 7.545s-7.545-3.379-7.545-7.545z" fill="#F5F5F5"/>
 </g>
</svg>