<svg xmlns="http://www.w3.org/2000/svg" version="1.1" viewBox="0 0 314.27 405.35" width="32" height="41">
 <path d="m0 0v314.29h98.864l58.259 91.058 58.269-91.058h98.874v-314.29z" fill="#FF6F00" fill-opacity="1"/>
 <g transform="matrix(.67341 0 0 .66862 57.133 55.743)" fill="#F5F5F5">
  <path d="m45.432 35.049h-0.025c-2.809 0-5.451 1.095-7.446 3.085-2.017 2.012-3.128 4.691-3.128 7.543v159.36c0 5.844 4.773 10.61 10.641 10.625 24.738 0.059 66.184 5.215 94.776 35.136v-166.78c0-1.981-0.506-3.842-1.461-5.382-23.467-37.792-68.563-43.534-93.357-43.592z" fill="#F5F5F5"/>
  <path d="m262.17 205.04v-159.37c0-2.852-1.111-5.531-3.128-7.543-1.995-1.99-4.639-3.085-7.445-3.085h-0.026c-24.793 0.059-69.889 5.801-93.357 43.593-0.955 1.54-1.46 3.401-1.46 5.382v166.78c28.592-29.921 70.038-35.077 94.776-35.136 5.867-0.015 10.64-4.781 10.64-10.624z" fill="#F5F5F5"/>
  <path d="m286.37 71.801h-7.706v133.24c0 14.921-12.157 27.088-27.101 27.125-20.983 0.05-55.581 4.153-80.084 27.344 42.378-10.376 87.052-3.631 112.51 2.171 3.179 0.724 6.464-0.024 9.011-2.054 2.538-2.025 3.994-5.052 3.994-8.301v-168.9c1e-3 -5.859-4.767-10.626-10.626-10.626z" fill="#F5F5F5"/>
  <path d="m18.332 205.04v-133.24h-7.706c-5.858 0-10.626 4.767-10.626 10.626v168.9c0 3.25 1.456 6.276 3.994 8.301 2.545 2.029 5.827 2.78 9.011 2.054 25.46-5.803 70.135-12.547 112.51-2.171-24.502-23.19-59.1-27.292-80.083-27.342-14.943-0.036-27.101-12.203-27.101-27.124z" fill="#F5F5F5"/>
 </g>
</svg>