<svg xmlns="http://www.w3.org/2000/svg" version="1.1" viewBox="0 0 314.27 405.35" width="32" height="41">
 <path d="m0 0v314.29h98.864l58.259 91.058 58.269-91.058h98.874v-314.29z" fill="#FF6F00" fill-opacity="1"/>
 <path d="m219.01 137.16c-1.5611 0-3.0964 0.10372-4.6085 0.27689l-9.5034-31.209c0.9279-1.0378 1.492-2.3844 1.492-3.8587 0-3.2765-2.7692-5.9343-6.1851-5.9343h-25.512c-3.4151 0-6.1851 2.6578-6.1851 5.9343 0 3.2764 2.77 5.9332 6.1851 5.9332h16.158l-6.5694 10.032c-0.29095-0.0352-0.58806-0.0527-0.88579-0.0527l-55.234 0.76915c1.3682-1.0886 2.2409-2.7325 2.2409-4.5708 0-3.2762-2.7695-5.9332-6.1851-5.9332h-14.9c-3.4158 0-6.185 2.6571-6.185 5.9332 0 3.2765 2.7694 5.9332 6.185 5.9332h1.1122c0.14855 0.53181 0.3727 1.052 0.68652 1.5452l2.4839 3.9216-6.8561 12.975c-3.6268-1.1026-7.4861-1.7012-11.489-1.7012-21.02 5.3e-4 -38.122 16.406-38.122 36.573 0 20.165 17.102 36.572 38.122 36.572 18.152 0 33.373-12.239 37.19-28.566l20.399 1.1324c0.11955 8e-3 0.23909 9e-3 0.35776 9e-3 2.1182 0 4.1007-1.043 5.2361-2.7774l38.272-58.441 5.8159 19.097c-12.79 5.9093-21.638 18.469-21.638 32.974 0 20.165 17.1 36.572 38.122 36.572 21.021 0 38.123-16.406 38.123-36.572 0-20.166-17.103-36.573-38.123-36.573zm-97.844 0.66366 20.614 32.547-8.6096-0.47731c-1.1476-10.508-6.9557-19.702-15.397-25.65zm-51.658 35.909c0-13.623 11.553-24.706 25.752-24.706 1.988 0 3.9225 0.22415 5.7826 0.63554l-11.299 21.388c-0.94328 1.7844-0.88518 3.9051 0.15559 5.6407 1.0402 1.7349 2.9216 2.8494 5.0043 2.965l24.958 1.3856c-3.2564 10.066-13.052 17.396-24.601 17.396-14.199 0-25.752-11.083-25.752-24.705zm35.537-5.4009 7.0224-13.291c4.3337 3.5922 7.4084 8.5404 8.4992 14.153zm48.234-2.6545-22.039-34.798 45.238-0.62938zm65.735 32.761c-14.2 0-25.752-11.083-25.752-24.705 0-9.0988 5.1564-17.058 12.808-21.344l7.0068 23.008c0.95866 3.1462 4.3948 4.9522 7.6701 4.0325 3.2793-0.91911 5.1606-4.2145 4.2026-7.3588l-7.0074-23.016c0.35513-0.0176 0.71201-0.0264 1.0716-0.0264 14.2 0 25.752 11.082 25.752 24.705 0 13.623-11.552 24.705-25.752 24.705z" fill="#F5F5F5" stroke-width=".60579"/>
</svg>