<svg xmlns="http://www.w3.org/2000/svg" version="1.1" viewBox="0 0 314.27 405.35" width="32" height="41">
 <path d="m0 0v314.29h98.864l58.259 91.058 58.269-91.058h98.874v-314.29z" fill="#FF6F00" fill-opacity="1"/>
 <g transform="matrix(1.1116 0 0 1.1116 -45.871 -38.052)" fill="#F5F5F5" stroke-width=".33195">
  <path d="m156.93 177.96 13.039-6.1237-13.039-6.124 7.8608-11.122-14.723 0.51428 0.5763-13.139-12.463 7.0149-6.8625-11.636-6.8625 11.636-12.463-7.0149 0.5763 13.139-14.723-0.51428 7.8608 11.122-13.039 6.124 13.039 6.124-7.8608 11.122 14.723-0.51428-0.5763 13.139 12.463-7.0149 6.8625 11.636 6.8625-11.636 12.463 7.0146-0.5763-13.139 14.723 0.51429zm-25.611 11.122c-10.673 0-19.325-7.7214-19.325-17.246s8.6522-17.246 19.325-17.246 19.325 7.7214 19.325 17.246-8.6522 17.246-19.325 17.246z" fill="#F5F5F5"/>
  <path d="m254.54 240.1c-3.5597 2.2337-6.1316 3.8477-11.961 3.8477s-8.4013-1.614-11.961-3.8477c-3.9473-2.4767-8.8602-5.5589-18.023-5.5589-9.1634 0-14.076 3.0826-18.023 5.5589-3.5597 2.2337-6.1316 3.8477-11.96 3.8477s-8.4002-1.6137-11.96-3.8477c-3.9473-2.4764-8.8598-5.5589-18.023-5.5589-9.1634 0-14.076 3.0826-18.023 5.5589-3.5597 2.2337-6.1316 3.8477-11.96 3.8477s-8.3998-1.6137-11.96-3.8477c-3.9473-2.4767-8.8595-5.5592-18.023-5.5592v9.4066c5.828 0 8.4002 1.6137 11.96 3.8477 3.9473 2.4764 8.8598 5.5589 18.023 5.5589 9.1634 0 14.076-3.0825 18.023-5.5589 3.5597-2.2337 6.1316-3.8477 11.96-3.8477s8.3998 1.6137 11.96 3.8477c3.9473 2.4764 8.8598 5.5589 18.023 5.5589s14.076-3.0822 18.023-5.5589c3.5597-2.2337 6.1316-3.8477 11.96-3.8477 5.8287 0 8.4009 1.6137 11.961 3.8477 3.9473 2.4767 8.8602 5.5589 18.024 5.5589 9.1634 0 14.076-3.0822 18.023-5.5589 3.5604-2.2334 6.1323-3.8477 11.961-3.8477v-9.4066c-9.1634 0-14.076 3.0822-18.024 5.5592z" fill="#F5F5F5"/>
  <path d="m267.12 127.26c-5.7963-11.092-15.574-19.81-27.844-24.943l2.4851-6.0926-9.9059-3.218-2.4862 6.0958c-28.641-6.7647-58.947 7.0102-69.271 32.328l-2.1277 5.2171 6.1165 1.0154c9.8845 1.641 19.334 4.7104 28.087 9.1231l1.2306 0.62027 1.413-0.0122c0.1778-2e-3 0.35561-3e-3 0.53307-3e-3 4.6525 0 9.2499 0.53089 13.691 1.5544l-24.561 60.218c-0.62127-7e-3 -1.2418-0.0169-1.8638-0.0169-16.286 0-32.28 2.3798-47.537 7.0732-9.6125 2.9568-18.813 6.7985-27.503 11.463 4.0147 1.4905 6.9728 3.3441 9.175 4.7257 3.0821 1.9342 3.4044 2.1362 5.8975 2.1362 2.4935 0 2.8154-0.20226 5.8965-2.1355 4.3356-2.7204 11.589-7.2711 24.086-7.2711s19.751 4.5514 24.085 7.2705c3.0821 1.9342 3.4044 2.1362 5.8975 2.1362 2.4935 0 2.8154-0.20226 5.8961-2.1355 4.3359-2.72 11.59-7.2711 24.087-7.2711 12.499 0 19.752 4.5517 24.087 7.2708 3.0818 1.9336 3.404 2.1358 5.8979 2.1358s2.8161-0.20226 5.8968-2.1355c2.2029-1.3823 5.1621-3.2362 9.1775-4.727-8.6894-4.6646-17.89-8.5063-27.503-11.463-11.213-3.4491-22.824-5.6433-34.655-6.5671l23.448-57.49c4.2973 1.8307 8.3408 4.1663 12.014 6.9713l1.0739 0.82002 1.3894 0.23048c9.8845 1.641 19.334 4.7104 28.088 9.1231l5.4172 2.7307 2.1281-5.2174c5.2963-12.986 4.6093-27.036-1.9355-39.562z" fill="#F5F5F5"/>
 </g>
</svg>