<svg xmlns="http://www.w3.org/2000/svg" version="1.1" viewBox="0 0 314.27 405.35" width="32" height="41">
 <path d="m0 0v314.29h98.864l58.259 91.058 58.269-91.058h98.874v-314.29z" fill="#FF6F00" fill-opacity="1"/>
 <g transform="matrix(.39062 0 0 .39062 57.135 56.93)" fill="#F5F5F5">
  <path d="m32 271.69v192c0 17.664 14.368 32 32 32h160v-224z" fill="#F5F5F5"/>
  <path d="m480 143.69h-101.25c7.264-4.96 13.504-9.888 17.856-14.304 25.824-25.952 25.824-68.192 0-94.144-25.088-25.28-68.8-25.216-93.856 0-13.888 13.92-50.688 70.592-45.6 108.45h-2.304c5.056-37.856-31.744-94.528-45.6-108.45-25.088-25.216-68.8-25.216-93.856 0-25.792 25.952-25.792 68.192-0.032 94.144 4.384 4.416 10.624 9.344 17.888 14.304h-101.25c-17.632 0-32 14.368-32 32v48c0 8.832 7.168 16 16 16h208v-64h64v64h208c8.832 0 16-7.168 16-16v-48c0-17.632-14.336-32-32-32zm-257.89-1.056s-1.344 1.056-5.92 1.056c-22.112 0-64.32-22.976-78.112-36.864-13.408-13.504-13.408-35.52 0-49.024 6.496-6.528 15.104-10.112 24.256-10.112 9.12 0 17.728 3.584 24.224 10.112 21.568 21.696 43.008 77.12 35.552 84.832zm73.664 1.056c-4.544 0-5.888-1.024-5.888-1.056-7.456-7.712 13.984-63.136 35.552-84.832 12.896-13.024 35.456-13.088 48.48 0 13.44 13.504 13.44 35.52 0 49.024-13.792 13.888-56 36.864-78.144 36.864z" fill="#F5F5F5"/>
  <path d="m288 271.69v224h160c17.664 0 32-14.336 32-32v-192z" fill="#F5F5F5"/>
 </g>
</svg>