<svg xmlns="http://www.w3.org/2000/svg" version="1.1" viewBox="0 0 314.27 405.35" width="32" height="41">
 <path d="m0 0v314.29h98.864l58.259 91.058 58.269-91.058h98.874v-314.29z" fill="#FF6F00" fill-opacity="1"/>
 <g transform="matrix(1.6324 0 0 1.6324 57.132 53.753)" fill="#F5F5F5">
  <circle cx="84.811" cy="10.319" r="10.319"></circle>
  <path d="m56.688 48.293-4.218-4.497 1.038-0.974c0.457-0.429 0.519-1.119 0.177-1.622 1.468-0.27 2.729-1.35 3.146-2.888 0.811-2.98 3.411-5.905 7.135-8.021 0.808-0.457 1.642-0.863 2.488-1.219l-5.537 17.33c-0.336 1.058-0.398 2.097-0.261 3.092l-3.892 10.385-12.122 0.603c-2.612 0.13-4.623 2.352-4.493 4.962 0.125 2.532 2.217 4.5 4.725 4.5 0.078 0 0.158-2e-3 0.238-6e-3l15.229-0.757c1.886-0.095 3.537-1.299 4.2-3.067l3.402-9.081c0.407 0.112 0.819 0.199 1.239 0.264l6.211 8.961-5.317 19.71c-0.679 2.524 0.813 5.124 3.339 5.804 0.414 0.112 0.828 0.164 1.235 0.164 2.088 0 3.999-1.391 4.569-3.502l5.888-21.833c0.364-1.347 0.114-2.782-0.679-3.93l-6.193-8.937c0.291-0.475 0.535-0.992 0.721-1.569l5.129-16.058c1.516 0.977 3.258 1.752 5.189 2.279 1.818 0.498 3.68 0.739 5.496 0.739 4.1 0 7.977-1.229 10.68-3.521 1.686-1.433 1.896-3.96 0.463-5.646s-3.959-1.896-5.646-0.463c-1.883 1.599-5.535 2.075-8.881 1.162-2.711-0.74-4.701-2.25-5.32-4.036-0.057-0.162-0.123-0.314-0.199-0.465-0.693-2.189-2.342-4.064-4.152-5.244-0.416-0.368-0.916-0.654-1.479-0.826-0.249-0.11-0.521-0.214-0.804-0.297-1.061-0.314-2.312-0.443-2.312-0.443l-0.031-5e-3c-0.515-0.036-1.048-0.03-1.584 0.013-5.012-0.2-10.609 1.195-15.494 3.972-5.65 3.21-9.523 7.787-10.909 12.888-0.024 0.087-0.04 0.175-0.059 0.263-0.413-0.122-0.88-0.035-1.219 0.281l-1.038 0.976-4.217-4.5-11.124 10.425 14.121 15.061zm-8.148-10.77c0.084-0.079 0.216-0.074 0.293 0.01l0.15 0.162c0.175 1.59 1.293 2.988 2.931 3.434 0.12 0.031 0.239 0.052 0.356 0.072l0.075 0.08 0.454 0.482c0.08 0.083 0.074 0.215-0.01 0.293l-1.039 0.974-4.249-4.534z" fill="#F5F5F5"/>
  <polygon points="95.924 96.193 58.833 96.193 58.833 75.714 15.657 75.714 15.657 82.473 52.075 82.473 52.075 102.95 89.165 102.95 89.165 122.52 95.924 122.38"></polygon>
 </g>
</svg>