<svg xmlns="http://www.w3.org/2000/svg" version="1.1" viewBox="0 0 314.27 405.35" width="32" height="41">
 <path d="m0 0v314.29h98.864l58.259 91.058 58.269-91.058h98.874v-314.29z" fill="#FF6F00" fill-opacity="1"/>
 <g transform="matrix(.39063 0 0 .39063 57.132 53.017)" fill="#F5F5F5">
  <path d="m511.17 28.134c-1.643-3.989-5.547-6.592-9.856-6.592-80.043 0-153.07 25.237-195.31 67.477-24.384 24.384-34.005 60.48-25.067 94.251 1.088 4.139 4.565 7.232 8.811 7.829 4.267 0.597 8.448-1.365 10.645-5.056 19.541-32.469 43.648-63.125 71.637-91.136 4.16-4.16 10.923-4.16 15.083 0s4.16 10.923 0 15.083c-8.192 8.192-15.637 16.32-22.699 24.384-0.683 0.789-1.323 1.579-2.005 2.368-39.979 46.251-62.336 89.301-73.835 117.12-13.867-43.349-39.851-117.78-63.573-149.23 14.571-21.141 12.544-50.347-6.251-69.12-22.42-22.443-59.391-35.307-101.42-35.307-4.309 0-8.213 2.603-9.856 6.592-1.664 3.989-0.747 8.576 2.304 11.627 9.707 9.685 12.821 28.736 15.851 47.125 3.093 18.731 5.995 36.416 16.341 46.763 10.581 10.581 24.491 15.872 38.4 15.872 10.197 0 20.352-2.901 29.227-8.576 24.789 34.709 57.045 133.55 68.16 171.6 1.344 4.565 5.504 7.659 10.24 7.659h0.256c4.821-0.107 8.981-3.477 10.112-8.171 0.107-0.405 5.355-21.376 21.205-52.693 16.896 11.861 36.395 18.112 56.021 18.091 25.003 0 49.92-9.557 68.928-28.565 18.261-18.261 23.808-51.989 29.675-87.68 6.336-38.485 12.885-78.293 34.667-100.1 3.051-3.051 3.968-7.638 2.304-11.627z" fill="#F5F5F5"/>
  <path d="m124.67 259.52c-18.283-17.344-91.392-22.933-113.36-24.235-2.965 0-5.803 0.875-7.957 2.88-2.134 2.027-3.35 4.843-3.35 7.766v213.35c0 5.888 4.779 10.667 10.667 10.667h64c4.608 0 8.704-2.965 10.133-7.36 1.557-4.779 38.315-138.94 43.157-194.41 0.278-3.221-0.917-6.421-3.285-8.661z" fill="#F5F5F5"/>
  <path d="m448 374.12-74.667 31.872c-20.672 1.003-63.659-0.341-74.667-0.192-10.837 0.149-66.24-17.621-57.557-21.141 1.813-0.747 6.443-0.896 14.891-0.192 48.725 4.053 128 13.867 128-21.333s-85.909-42.667-106.67-42.667-55.552-18.625-85.333-21.334c-11.84-1.067-28.096-2.688-44.608-3.712-6.741 45.867-26.389 112.34-36.501 144.85l113.11 51.158c42.325 16 71.104 36.437 160 0 0 0 128-54.336 128-85.333 0-25.622-29.333-43.969-64-31.979z" fill="#F5F5F5"/>
 </g>
</svg>