<svg xmlns="http://www.w3.org/2000/svg" width="32" height="41" version="1.1" viewBox="0 0 314.27 405.35">
 <path d="m0 0v314.29h98.864l58.259 91.058 58.269-91.058h98.874v-314.29z" fill="#FF6F00" fill-opacity="1"/>
 <g transform="matrix(.72358 0 0 .72358 162.3 -49.768)" fill="#F5F5F5">
  <g transform="matrix(.45589 0 0 .45589 -103.41 170.66)" fill="#F5F5F5">
   <path d="m0 0h126.17v111h-126.17z" fill="#F5F5F5"/>
   <path d="m156.17 111h266.17v-111h-266.17zm182.78-69.984h29.641v29.637h-29.641zm-26.945 0v29.637h-29.637v-29.637z" fill="#F5F5F5"/>
   <path d="m0 141v371h422.34v-371zm211.17 294.99c-65.258 0-118.35-53.094-118.35-118.35s53.09-118.35 118.35-118.35c65.258 0 118.35 53.094 118.35 118.35s-53.09 118.35-118.35 118.35z" fill="#F5F5F5"/>
  </g>
  <path d="m-41.631 300.9c8.9787-3.0149 23.008-3.8448 38.855 9.312 8.717 7.2372 17.603 9.5841 26.411 6.9737 4.1351-1.2269 7.4064-3.2962 9.3813-4.7777-1.5706-20.782-18.984-37.212-40.161-37.212-17.601 0-32.6 11.349-38.067 27.115 1.1237-0.50934 2.3168-0.98659 3.5795-1.4104z" stroke-width=".45589" fill="#F5F5F5"/>
  <path d="m28.22 330.08c-3.2999 1.0436-7.2299 1.8182-11.625 1.8182-8.1312 0-17.851-2.6535-28.106-11.167-8.6655-7.1944-17.178-9.5557-25.3-7.0216-6.1171 1.9091-10.037 5.9676-10.352 6.3022 2.2634 20.079 19.347 35.736 40.02 35.736 17.39 0 32.24-11.079 37.866-26.548-0.80493 0.31163-1.6384 0.60906-2.5021 0.88148z" stroke-width=".45589" fill="#F5F5F5"/>
 </g>
</svg>