<svg xmlns="http://www.w3.org/2000/svg" version="1.1" viewBox="0 0 314.27 405.35" width="32" height="41">
 <path d="m0 0v314.29h98.864l58.259 91.058 58.269-91.058h98.874v-314.29z" fill="#FF6F00" fill-opacity="1"/>
 <g transform="matrix(.53991 0 0 .53991 48.805 47.007)" fill="#F5F5F5">
  <path d="m374.88 79.565h-15.102v-26.842c1e-3 -29.118-23.604-52.723-52.722-52.723h-212.83c-29.118 0-52.723 23.605-52.723 52.723v26.842h-15.101c-6.063 0-10.978 4.915-10.978 10.979v60.812c0 6.063 4.915 10.978 10.978 10.978h15.102v131.08c-5.874 5.265-9.572 12.908-9.572 21.417v20.316c0 15.883 12.875 28.758 28.758 28.758h3.558v28.914c0 4.672 3.79 8.459 8.462 8.459h38.908c4.672 0 8.458-3.787 8.458-8.459v-28.914h161.13v28.914c0 4.672 3.786 8.459 8.459 8.459h38.907c4.672 0 8.461-3.787 8.461-8.459v-28.914h3.559c15.882 0 28.758-12.875 28.758-28.758v-20.316c0-8.508-3.698-16.152-9.572-21.417v-131.08h15.102c6.062 0 10.978-4.915 10.978-10.978v-60.812c-1e-3 -6.063-4.915-10.978-10.979-10.978zm-47.703 4.29v129.73h-112.16v-129.73zm-182.45-56.365h111.84c7.765 0 14.06 6.294 14.06 14.06 0 7.764-6.294 14.059-14.06 14.059h-111.84c-7.765 0-14.06-6.295-14.06-14.059 0-7.766 6.295-14.06 14.06-14.06zm-70.617 56.365h112.16v129.73h-112.16zm50.198 187.61c0 7.643-6.216 13.858-13.86 13.858h-22.871c-7.631 0-13.846-6.216-13.846-13.858v-15.42c0-7.645 6.215-13.859 13.846-13.859h22.871c7.644 0 13.86 6.215 13.86 13.859zm152.68 0v-15.42c0-7.645 6.215-13.859 13.859-13.859h22.871c7.631 0 13.846 6.215 13.846 13.859v15.42c0 7.643-6.215 13.858-13.846 13.858h-22.871c-7.643 1e-3 -13.859-6.216-13.859-13.858z" fill="#F5F5F5"/>
 </g>
</svg>