<svg xmlns="http://www.w3.org/2000/svg" version="1.1" viewBox="0 0 314.27 405.35" width="32" height="41">
 <path d="m0 0v314.29h98.864l58.259 91.058 58.269-91.058h98.874v-314.29z" fill="#FF6F00" fill-opacity="1"/>
 <g transform="matrix(.20591 0 0 .20591 57.133 55.79)" fill="#F5F5F5">
  <path d="m508.45 640.5c11 0 20-9 20-20v-9.3c0-11-9-20-20-20h-334c-11 0-20 9-20 20v9.3c0 11 9 20 20 20z" fill="#F5F5F5"/>
  <path d="m718.15 228.2c-31.4-31.4-67.9-56-108.7-73.3l-0.2-0.1c-13.3-5.6-28.699-0.8-36.5 11.3l-23.199 36.1c-5.801-2-12-3.2-18.4-3.7-1.9-0.1-3.9-0.2-5.9-0.2-5.399 0-10.699 0.6-15.8 1.7l40.9-63.8 12.7-19.8c8.899-13.9 4.899-32.5-9.101-41.4l-109.3-70.3c-5-3.2-10.6-4.7-16.2-4.7-9.899 0-19.6 4.9-25.3 13.8l-190.1 296.4c-8.9 13.9-4.9 32.5 9.1 41.4l20.7 13.3-18.8 29.4-5.9 9.2c-8.9 13.899-4.9 32.5 9.1 41.399l17.8 11.4c13.9 8.9 32.5 4.9 41.4-9.1l5.9-9.2 9.399-14.7 9.4-14.7 20.4 13.101c5 3.199 10.6 4.699 16.199 4.699 9.9 0 19.601-4.899 25.301-13.8l78-121.7c1.6 7.2 4.199 14 7.8 20.3 3.1 5.5 6.8 10.6 11.1 15.1 14.4 15.2 34.9 24.6 57.601 23.9 40.1-1.2 72.699-33.8 73.8-73.9 0.3-9.8-1.3-19.2-4.4-27.9 20.9 11.4 40.3 25.9 57.601 43.2 47.6 47.6 73.8 110.8 73.8 178.1s-26.2 130.5-73.8 178.1c-29.601 29.6-65.2 50.9-104.1 62.8-2.899 0.9-5.899 1.3-8.899 1.3h-98.4c-16.6 0-30-13.399-30-30v-6.7h-143.3v135c3.1-0.2 6.3-0.301 9.399-0.301h430.2c34.2-6.1 60.3-36 60.3-72 0-22.199-9.899-42.1-25.5-55.5 19.2-24.199 35.101-50.8 47.2-79.399 17.8-42.2 26.9-87 26.9-133.1s-9-90.899-26.9-133.1c-17.3-40.698-41.9-77.298-73.3-108.6zm-192.9 73.5c-12.699 0-23.3-8.6-26.399-20.4-0.601-2.2-0.9-4.6-0.9-7 0-13.5 9.8-24.7 22.7-26.9 1.5-0.3 3.1-0.4 4.7-0.4 15.1 0 27.3 12.2 27.3 27.3s-12.301 27.4-27.401 27.4zm181.9 459.5c-3.2 1.5-6.8 2.3-10.6 2.3-10.101 0-18.801-5.8-22.9-14.3-1.7-3.4-2.6-7.301-2.6-11.301 0-14.1 11.399-25.6 25.6-25.6 3.8 0 7.4 0.8 10.6 2.3 1.7 0.8 3.4 1.8 4.9 2.9 6.1 4.7 10.1 12 10.1 20.3-0.1 10.501-6.3 19.401-15.1 23.401z" fill="#F5F5F5"/>
  <path d="m269.85 845.3c-65.4 4.8-116.9 59.4-116.9 126h524.2c16.6 0 30-13.4 30-30v-96.3h-427.9c-3.2 0-6.3 0.1-9.4 0.3z" fill="#F5F5F5"/>
 </g>
</svg>