<svg xmlns="http://www.w3.org/2000/svg" version="1.1" viewBox="0 0 314.27 405.35" width="32" height="41">
 <path d="m0 0v314.29h98.864l58.259 91.058 58.269-91.058h98.874v-314.29z" fill="#FF6F00" fill-opacity="1"/>
 <path d="m256.87 113.03c-0.40264-1.0673-1.2331-1.917-2.2907-2.344l-17.772-7.1699c-1.1038-5.7409-5.4646-10.339-11.076-11.789l-0.95862-11.043c-0.14009-1.6158-1.2244-2.9952-2.7618-3.5132-1.5371-0.51767-3.2349-0.07422-4.3246 1.1256l-4.5609 5.0312-2.8194-9.8659c-0.48613-1.7006-2.0124-2.8943-3.7808-2.9556-1.7786-0.06494-3.3742 1.0236-3.9767 2.687l-21.063 58.113s-78.023 3.6421-78.056 3.6441c-15.999 0.9614-31.155-7.5992-38.604-21.811-1.0466-1.9954-3.5121-2.7655-5.507-1.7198-1.9957 1.0463-2.7655 3.512-1.7197 5.5069 6.6588 12.706 18.453 21.644 31.975 24.898-1.4038 1.6358-4.4199 5.6908-6.1838 12.066-1.9178 6.9306-2.6086 17.98 4.4427 32.01l-11.437 15.536c-0.66796 0.90639-0.93134 2.0499-0.72733 3.1584l5.0339 27.296c0.35625 1.9344 2.044 3.3393 4.0118 3.3393h5.1276c1.2096 0 2.3568-0.53716 3.1323-1.4656 0.77466-0.92893 1.0978-2.1543 0.88135-3.3444l-3.1878-17.509 33.724-25.316c0.0649-0.0464-0.0557 0.0464 0 0 3.2247-2.7086 5.5652-5.6918 7.2399-8.7581 17.577 3.0856 41.631 7.2613 57.05 9.7443l6.7924 43.204c0.31171 1.984 2.0216 3.446 4.03 3.446h4.219c2.2534 0 4.0795-1.8263 4.0795-4.0796v-43.855c3.8298-2.6154 5.1989-6.9895 6.1062-11.274 0.0278-0.13452 9.0757-41.891 9.0757-41.891 1.7053 0.28388 3.4273 0.43325 5.162 0.43325 11.947 0 22.886-6.9944 28.551-18.254 0.51211-1.0181 0.57427-2.2049 0.17256-3.2722z" fill="#F5F5F5" stroke-width=".45327"/>
</svg>