<svg xmlns="http://www.w3.org/2000/svg" version="1.1" viewBox="0 0 314.27 405.35" width="32" height="41">
 <path d="m0 0v314.29h98.864l58.259 91.058 58.269-91.058h98.874v-314.29z" fill="#FF6F00" fill-opacity="1"/>
 <g transform="matrix(.34249 0 0 .34249 57.131 53.064)" fill="#F5F5F5">
  <g id="Layer_1_30_" fill="#F5F5F5">
   <path d="m544.42 364.65v-22.95c22.95-14.024 38.25-39.524 38.25-67.574 0-36.976-54.824-85.425-72.675-99.45-3.825-2.55-7.649-2.55-11.475 0-17.851 15.3-72.675 63.75-72.675 99.45 0 29.324 15.3 53.55 38.25 67.574v22.95h-89.25v-63.75c34.425-25.5 57.375-67.574 57.375-113.48 0-65.025-98.176-153-131.32-179.78-6.375-5.1-15.3-5.1-20.4 0-33.15 26.775-131.32 114.75-131.32 179.78 0 47.175 22.95 87.975 57.375 113.48v63.75h-87.975v-22.95c22.95-14.024 38.25-39.524 38.25-67.574 0-36.976-54.825-85.425-72.675-99.45-3.825-2.55-7.65-2.55-11.475 0-17.85 15.3-72.675 63.75-72.675 99.45 0 29.324 15.3 53.55 38.25 67.574v22.95c-21.675 1.276-38.25 19.125-38.25 40.8v133.88c0 22.95 19.125 40.801 40.8 40.801h62.475v-84.15c0-24.225 19.125-43.35 43.35-43.35s43.35 19.125 43.35 43.35v84.15h205.28v-84.15c0-24.225 19.125-43.35 42.075-43.35s42.075 19.125 42.075 43.35v84.15h63.75c22.95 0 40.8-17.851 40.8-40.801v-133.88c-1.275-21.675-17.849-39.524-39.525-40.8z" fill="#F5F5F5"/>
  </g>
 </g>
</svg>