<svg xmlns="http://www.w3.org/2000/svg" version="1.1" viewBox="0 0 314.27 405.35" width="32" height="41">
 <path d="m0 0v314.29h98.864l58.259 91.058 58.269-91.058h98.874v-314.29z" fill="#FF6F00" fill-opacity="1"/>
 <path d="m253.92 95.385-32.938 32.938-28.812-10.292-10.292-28.811 32.938-32.939c-21.612-7.2294-46.408-2.2536-63.618 14.956-16.891 16.891-21.994 41.09-15.343 62.412-0.89596 0.70536-1.7636 1.465-2.5901 2.2911l-67.645 67.645c-11.321 11.32-11.321 29.674 0 40.996 11.321 11.32 29.676 11.32 40.997 0l67.645-67.645c0.8262-0.8262 1.5842-1.6939 2.2908-2.5895 21.322 6.6514 45.522 1.5473 62.412-15.344 17.208-17.208 22.184-42.005 14.954-63.618z" fill="#F5F5F5" stroke-width=".65902"/>
</svg>