<svg xmlns="http://www.w3.org/2000/svg" version="1.1" viewBox="0 0 314.27 405.35" width="32" height="41">
 <path d="m0 0v314.29h98.864l58.259 91.058 58.269-91.058h98.874v-314.29z" fill="#FF6F00" fill-opacity="1"/>
 <path d="m66.653 220.33c0-6.8473 0.27358-13.163 0.60875-14.034 0.71695-1.8688 4.4896-2.1016 6.2086-0.38267 0.66153 0.66154 1.2029 2.9175 1.2029 5.0121v3.8095h66.052l0.30789-4.1585c0.35716-4.8178 2.7217-7.0466 5.5715-5.2521 1.5005 0.94445 1.7946 3.0118 2.0343 14.28l0.27974 13.176h-8.0783v-12.03h-66.167v12.03h-8.0198zm93.792 10.221c-1.2342-1.7621-1.5606-5.1996-1.5606-16.433v-14.203l3.7589-0.46361c2.068-0.25423 4.7748-0.0897 6.015 0.36684 2.1934 0.80756 2.2558 1.2208 2.2558 14.955 0 7.821-0.46272 14.992-1.0376 16.066-1.5097 2.8208-7.3795 2.6411-9.4319-0.28942zm59.628 0.28854c-0.57092-1.067-1.0382-6.3025-1.0382-11.636 0-8.4305 0.20673-9.6182 1.5858-9.0885 0.87179 0.33517 2.677 0.60875 4.0104 0.60875 2.4166 0 2.4239 0.0352 2.4239 11.027v11.027h-2.9721c-1.9123 0-3.3419-0.69144-4.0097-1.9389zm-140.7-22.774c-1.5372-1.5374-0.66857-7.3049 1.2553-8.3345 1.1906-0.63778 11.759-1.0374 27.378-1.0374 28.455 0 29.218 0.16098 28.657 6.0588l-0.32989 3.4649-28.139 0.26567c-15.477 0.14691-28.446-0.0352-28.821-0.41698zm138.94-3.2698c-1.7765-1.1155-3.8021-2.9448-4.5018-4.0654-0.98007-1.5688-2.3337-2.0365-5.8956-2.0365-5.5621 0-10.396-2.938-13.048-7.9296-2.099-3.9509-1.7304-5.1033 1.634-5.1033 4.1304 0 12.985-3.8679 17.289-7.5523 9.712-8.3125 12.625-23.195 6.8447-34.968l-2.9116-5.9304 2.2709-1.8389c1.2489-1.0115 3.1439-1.839 4.21-1.839 2.6022 0 6.8614 4.394 6.8614 7.079 0 1.6878 0.38267 1.9859 1.7538 1.3674 7.6634-3.4504 14.591 3.7604 11.692 12.171-0.76798 2.2277-0.95588 4.0822-0.43369 4.2618 6.0766 2.0884 13.053 12.265 13.053 19.044 0 8.8369-4.8706 16.57-12.781 20.294-2.6199 1.2325-6.2243 3.6123-8.0099 5.2886-4.3175 4.0501-13.027 4.9-18.028 1.759zm-138.96-8.7754c-1.5248-1.525-0.64306-7.2945 1.2707-8.3188 2.6138-1.3987 51.653-1.3987 54.269 0 1.9233 1.0293 2.5144 4.3169 1.3305 7.4009-0.53398 1.3937-3.9829 1.5859-28.405 1.5859-15.288 0-28.096-0.30085-28.464-0.66769zm78.56-2.452c-4.0258-1.607-8.9627-5.8016-11.464-9.7419-1.7351-2.7318-3.6465-4.1357-7.4229-5.4535-7.3112-2.5519-15.228-10.141-18.759-17.983-5.9044-13.117-2.8321-28.589 7.618-38.361 2.6568-2.4856 6.4111-5.273 8.3434-6.194l3.513-1.6751-2.0877-2.933c-4.1226-5.7896-2.2102-15.151 3.8617-18.905 3.5564-2.198 10.779-2.9132 15.114-1.4967 2.121 0.6932 2.2555 0.4592 2.2555-3.9187 0-3.8093 0.53222-5.1885 2.9301-7.5857 3.1885-3.1885 6.5833-3.7034 11.989-1.8193 3.8503 1.3419 6.1345 5.3747 6.1345 10.83 0 3.8622 0.16274 4.0652 4.1282 5.1331 7.8414 2.1115 15.893 12.517 15.916 20.568 9e-3 1.4363 1.0643 2.4368 3.524 3.3265 5.8673 2.1211 8.2958 9.5029 4.8556 14.754-1.6178 2.4685-1.5666 2.6047 2.4689 6.5994 11.142 11.033 9.0729 29.145-4.2727 37.398-4.145 2.5631-5.979 3.05-11.821 3.1386-6.5697 0.0994-6.9897 0.24895-8.4138 3.0078-3.9705 7.69-11.879 12.464-20.484 12.362-2.9968-0.0352-6.5624-0.50847-7.9243-1.0516zm-62.576-51.034c-2.2966-5.741-2.1323-8.217 0.51902-7.8194 2.2676 0.34044 6.0818 8.1737 5.1556 10.587-1.0434 2.719-4.0698 1.2423-5.6748-2.7681zm-26.323-0.50758c-0.79436-2.0693 4.4792-9.4977 6.7424-9.4977 3.1512 0 3.1309 1.854-0.0704 6.5081-3.1787 4.6208-5.6247 5.7165-6.6709 2.9894zm16.332-11.52c-7.7766-2.3582-11.75-11.091-8.1831-17.988 6.4758-12.524 24.563-8.6418 24.578 5.2741 9e-3 9.0551-7.9943 15.262-16.395 12.714zm23.49-7.8555c-2.7584-0.797-3.4383-2.0377-2.1942-4.003 0.65978-1.0421 2.0874-1.1541 6.2493-0.49175 4.4299 0.70464 5.3945 1.215 5.3945 2.854 0 1.5791-0.73191 2.0314-3.5087 2.1697-1.9298 0.095-4.6032-0.1434-5.9403-0.5287zm-47.693-6.0363c-3.1333-0.48912-4.0102-1.0654-4.0102-2.6313 0-1.5732 0.76798-2.0695 3.5652-2.3046 4.8874-0.41082 9.2012 1.3386 8.7781 3.5603-0.373 1.9593-2.4296 2.2981-8.333 1.3756zm36.592-15.86c0-2.6751 5.1474-9.4486 6.9209-9.1068 2.5977 0.50055 2.409 3.5206-0.45481 7.2747-2.841 3.725-6.4663 4.752-6.4663 1.8321zm-21.417-4.5988c-2.2756-5.9582-2.1466-7.9515 0.48911-7.5549 1.4908 0.22432 2.6966 1.7704 4.0227 5.1573 2.0331 5.1926 1.7951 6.6913-1.0622 6.6913-1.2076 0-2.3551-1.4283-3.4495-4.2936z" fill="#F5F5F5" stroke-width="1.0025"/>
</svg>