<svg xmlns="http://www.w3.org/2000/svg" version="1.1" viewBox="0 0 314.27 405.35" width="32" height="41">
 <path d="m0 0v314.29h98.864l58.259 91.058 58.269-91.058h98.874v-314.29z" fill="#FF6F00" fill-opacity="1"/>
 <g transform="matrix(.39063 0 0 .39063 57.134 54.186)" fill="#F5F5F5">
  <path d="m15 512h272c8.2852 0 15-6.7148 15-15v-16c0-16.57-13.43-30-30-30v-17.934c0-23.746-19.32-43.066-43.066-43.066h-155.87c-23.746 0-43.066 19.32-43.066 43.066v17.934c-16.57 0-30 13.43-30 30v16c0 8.2812 6.7188 15 15 15z" fill="#F5F5F5"/>
  <path d="m187.73 330.34c9.9688 13.23 28.781 15.875 42.012 5.9023 13.234-9.9688 15.875-28.781 5.9062-42.016l-90.273-119.79c-9.9727-13.234-28.781-15.875-42.012-5.9062-13.234 9.9727-15.879 28.781-5.9062 42.016z" fill="#F5F5F5"/>
  <path d="m403.36 167.85c9.9727 13.23 28.781 15.875 42.016 5.9023 13.23-9.9688 15.875-28.777 5.9023-42.012l-90.273-119.79c-9.9688-13.234-28.781-15.879-42.012-5.9062-13.23 9.9727-15.875 28.781-5.9023 42.016z" fill="#F5F5F5"/>
  <path d="m337.56 255c22.172-16.707 38.816-37.453 49.227-59.297l-105.04-139.39c-23.867 3.9883-48.395 14.266-70.57 30.977-22.172 16.707-38.816 37.453-49.227 59.293l105.04 139.4c23.867-3.9883 48.395-14.27 70.57-30.98z" fill="#F5F5F5"/>
  <path d="m378.07 258.91c-6.9844 7.1172-14.34 13.941-22.449 20.055-8.1133 6.1094-16.703 11.301-25.465 16.055l19.559 25.957 47.918-36.105z" fill="#F5F5F5"/>
  <path d="m415.68 308.82-47.918 36.105 90.273 119.8c9.9727 13.234 28.781 15.875 42.012 5.9062 13.234-9.9727 15.875-28.781 5.9062-42.016z" fill="#F5F5F5"/>
 </g>
</svg>