<svg xmlns="http://www.w3.org/2000/svg" version="1.1" viewBox="0 0 314.27 405.35" width="32" height="41">
 <path d="m0 0v314.29h98.864l58.259 91.058 58.269-91.058h98.874v-314.29z" fill="#FF6F00" fill-opacity="1"/>
 <g transform="matrix(2.5146 0 0 2.5146 57.133 57.016)" fill="#F5F5F5">
  <path d="m79.536 61.441h-79.536l3.946-6.846 12.285-21.284c2.175-3.76 5.722-3.76 7.889 0 0 0 2.853 4.942 3.197 5.52 1.634-2.825 10.341-17.916 10.341-17.916 2.18-3.76 5.725-3.76 7.894 0l17.301 29.968c0.891-1.548 1.771-3.064 2.443-4.256 1.574-2.713 4.127-2.713 5.707 0 1.563 2.724 4.127 7.166 5.701 9.869z" fill="#F5F5F5"/>
 </g>
</svg>