<svg xmlns="http://www.w3.org/2000/svg" version="1.1" viewBox="0 0 314.27 405.35" width="32" height="41">
 <path d="m0 0v314.29h98.864l58.259 91.058 58.269-91.058h98.874v-314.29z" fill="#FF6F00" fill-opacity="1"/>
 <g transform="matrix(.39063 0 0 .39063 105.44 69.194)" fill="#F5F5F5">
  <path d="m267.34 326.16h-75.008v-30.004h-120.01v30.004h-75.008v151.01h270.02zm-90.008 90.008h-90.008v-30.004h90.008z" fill="#F5F5F5"/>
  <path d="m227.76 132.05-40.535-10.152c12.715-13.684 20.113-31.805 20.113-50.762v-26.793c0-41.113-31.445-79.172-74.715-79.172-41.465 0-75.301 34.281-75.301 75.961v30.004c0 18.957 7.3984 37.078 20.117 50.762l-40.539 10.137c-41.297 10.316-40.254 46.527-39.582 75.637 0.10156 4.3945 0 28.48 0 28.48h38.793l30.004 30.004h132.43l30-30.004h38.793s-0.10156-24.086 0-28.48c0.67578-29.109 1.7148-65.324-39.582-75.621z" fill="#F5F5F5"/>
 </g>
</svg>