<svg xmlns="http://www.w3.org/2000/svg" version="1.1" viewBox="0 0 314.27 405.35" width="32" height="41">
 <path d="m0 0v314.29h98.864l58.259 91.058 58.269-91.058h98.874v-314.29z" fill="#FF6F00" fill-opacity="1"/>
 <g transform="matrix(.4079 0 0 .4079 106.75 86.844)" fill="#F5F5F5">
  <path d="m331.61 31.429c-3.504-9.236-13.832-13.883-23.068-10.377l-59.093 22.424-70.77-5.567s-8.506-0.136-94.915-0.136l-48.489-5.688 23.504-31.285c3.481 4.68 8.326 7.586 13.688 7.586 2.728 0 5.319-0.755 7.669-2.11v-37.036c2.083-23.994 22.267-42.887 46.792-42.887 25.906 0 47.097 21.076 47.097 46.982v32.941c2.349 1.354 5.055 2.11 7.783 2.11 10.595 0 19.184-11.337 19.184-25.322 0-10.227-4.596-19.031-11.208-23.028-6.146-29.065-31.991-50.948-62.858-50.948-30.975 0-56.898 22.035-62.924 51.251-0.92 0.598-1.795 1.292-2.625 2.069-7.597-3.87-17.097-1.862-22.395 5.188l-51.001 67.885c-8.27 11.009-1.484 26.901 12.215 28.507l75.825 8.895v74.715c21.207 6.097 43.461 18.205 41.827 40.223h11.319c-1.811-24.41 25.578-36.661 49.511-42.216v-71.812l71.963 5.661c2.645 0.207 5.285-0.173 7.748-1.109l62.843-23.848c9.237-3.506 13.882-13.833 10.378-23.068z" fill="#F5F5F5"/>
  <circle cx="127.14" cy="-17.307" r="40.163"></circle>
  <g fill="#F5F5F5">
   <path d="m360.81 205.09h-38.725c-18.378 20.924-64.758 26.089-92.68 26.089-27.897 0-74.291-5.153-92.68-26.089h-26.423c-18.378 20.924-64.758 26.089-92.68 26.089-27.897 0-74.291-5.153-92.68-26.089h-38.726c-4.344 0-7.865 3.522-7.865 7.865v19.184c0 4.344 3.521 7.865 7.865 7.865h21.677v170.76c0 5.707 4.625 10.331 10.332 10.331h410.57c5.706 0 10.332-4.625 10.332-10.331v-170.76h21.677c4.344 0 7.865-3.521 7.865-7.865v-19.184h1e-3c1e-3 -4.344-3.52-7.865-7.864-7.865z" fill="#F5F5F5"/>
   <path d="m17.62 157.51c-45.865 0-83.045 12.625-83.045 28.2s37.181 28.2 83.045 28.2 83.045-12.625 83.045-28.2c1e-3 -15.575-37.18-28.2-83.045-28.2zm0 39.234c-17.945 0-32.491-4.94-32.491-11.033 0-6.094 14.546-11.033 32.491-11.033 17.944 0 32.491 4.94 32.491 11.033s-14.546 11.033-32.491 11.033z" fill="#F5F5F5"/>
   <path d="m229.4 157.51c-45.865 0-83.045 12.625-83.045 28.2 0 15.574 37.181 28.2 83.045 28.2 45.865 0 83.045-12.625 83.045-28.2s-37.181-28.2-83.045-28.2zm-2e-3 39.233c-17.945 0-32.491-4.94-32.491-11.033s14.546-11.033 32.491-11.033 32.491 4.94 32.491 11.033-14.546 11.033-32.491 11.033z" fill="#F5F5F5"/>
  </g>
 </g>
</svg>