<svg xmlns="http://www.w3.org/2000/svg" version="1.1" viewBox="0 0 314.27 405.35" width="32" height="41">
 <path d="m0 0v314.29h98.864l58.259 91.058 58.269-91.058h98.874v-314.29z" fill="#FF6F00" fill-opacity="1"/>
 <g transform="matrix(1.0526 0 0 1.0526 -35.643 -39.112)" fill="#F5F5F5" stroke-width=".3711">
  <path d="m88.14 132.03v94.233l65.017-43.129z" fill="#F5F5F5"/>
  <path d="m191.16 186.23 79.986-62.716h-175.81l79.794 62.716c4.7186 3.7014 11.311 3.7014 16.03 0z" fill="#F5F5F5"/>
  <path d="m213.14 183.14 65.001 43.162v-94.129z" fill="#F5F5F5"/>
  <path d="m198.03 195c-4.3808 3.4354-9.6341 5.1551-14.884 5.1551-5.2517 0-10.502-1.7179-14.886-5.1551l-5.8797-4.6229-74.235 49.245v2.6542h190v-2.6005l-74.227-49.289z" fill="#F5F5F5"/>
 </g>
</svg>