<svg xmlns="http://www.w3.org/2000/svg" version="1.1" viewBox="0 0 314.27 405.35" width="32" height="41">
 <path d="m0 0v314.29h98.864l58.259 91.058 58.269-91.058h98.874v-314.29z" fill="#FF6F00" fill-opacity="1"/>
 <g transform="matrix(.54026 0 0 .54026 57.131 56.359)" fill="#F5F5F5">
  <g id="Layer_5_30_" fill="#F5F5F5">
   <path d="m360.73 63.061c-10.261-7.277-24.294-5.117-32.746 6.797-7.392 10.418-4.82 26.938-0.194 33.713 0 0 0.265 0.34-0.225 0.543-0.821 0.34-5.695 3-5.695 3-1.286 0.4-1.438 1.365-0.341 2.145l1.753 1.244s0.607 0.455 0.241 0.971c-3.557 5.015-33.042 47.366-46.065 66.077-2.671 3.489-2.157 0.394-1.806-1.543 2.746-15.103 6.124-33.683 6.914-38.03 0.114-0.623 0.974-0.488 0.974-0.488l2.004 0.365c1.325 0.24 1.908-0.543 1.296-1.742 0 0-1.44-5.307-1.798-6.098-0.237-0.523 0.124-0.553 0.124-0.553 8.254-1.334 21.751-11.148 24.044-23.764 2.614-14.371-5.652-25.918-18.028-28.168s-24.177 5.648-26.79 20.02c-2.285 12.568 7.038 26.445 14.098 30.625 0 0 0.384 0.197 0.025 0.588-0.6 0.654-3.889 5.129-3.889 5.129-0.996 0.906-0.726 1.846 0.599 2.086l2.115 0.385s0.743 0.156 0.629 0.779c-1.039 5.716-6.441 36.053-9.217 50.701-0.132 0.697-2.424 1.906-3.874 3.805-1.304 1.707-13.083 20.799-29.994 23.639h-41.525c-12.31-2.069-22.932-11.926-25.906-19.329-1.314-3.273-2.759-7.185-4.471-10.864l-31.125-69.93c-2.152-4.625-4.055-10.82-12.896-10.82h-66.77c-8.817 0-13.418 5.744-15.94 10.92l-31.497 69.238c-3.721 7.635-8.194 16.861-0.641 20.607 7.558 3.744 14.535 0.592 18.258-7.047l15.937-27.691s0.913-1.625 0.571 0.174c-2.127 11.199-18.829 66.553-18.829 66.553-1.429 7.01 3.255 12.748 10.411 12.748h17.017c1.218 0 1.001 0.916 1.001 0.916l3.249 89.436c0 11.342 3.815 17.289 12.533 17.289 8.714 0 12.533-5.947 12.533-17.289l3.249-89.705s-0.036-0.672 0.675-0.646c0.917 0.029 3.238 4e-3 4.277 4e-3 0.594 0 0.52 0.715 0.52 0.715l3.249 89.633c0 11.342 3.819 17.289 12.537 17.289 8.714 0 12.533-5.947 12.533-17.289l3.249-89.254s-0.104-1.098 1.204-1.098h18.306c7.155 0 11.953-5.76 10.662-12.797 0 0-16.717-57.797-18.285-67.643-0.449-2.822 17.236 28.859 17.236 28.859 2.815 6.051 8.903 5.321 11.582 9.357 5.804 8.74 12.652 17.732 19.655 21.904 11.31 6.857 11.488 3.787 12.565 13.717l-0.184 6.66-3.743 27.945c-0.225 1.678 0.564 3.135 1.894 3.838 0.296 0.156 0.942 0.336 0.935 1.314l-1.753 63.357c-0.159 0.596 0 4.783 0.339 4.943 1.098 3.512 4.288 6.184 8.296 6.184 3.831 0 7.179-2.395 8.458-5.742-0.18-0.121 8.649-61.398 9.872-61.398 1.604 0 9.872 61.398 9.872 61.398 1.437 3.348 4.627 5.742 8.458 5.742 4.028 0 7.178-2.672 8.456-6.184 0-0.16 0.319-4.348 0-4.943l-1.646-63.49c-0.081-0.912 0.668-1.119 0.97-1.303 1.211-0.736 1.916-2.125 1.703-3.717l-3.476-25.943-0.225-8.662c1.078-9.93 1.396-6.859 12.566-13.717 11.509-6.865 23.296-29.894 23.842-33.027 0.614-3.525-1.25-4.938-0.098-6.583 8.378-11.958 48.787-70.094 52.792-75.737 0.366-0.518 1.089-0.031 1.089-0.031l1.661 1.18c1.098 0.779 1.958 0.316 1.911-1.031 0 0 0.942-5.416 0.953-6.285 7e-3 -0.574 0.346-0.447 0.346-0.447 8.042 2.285 24.425-0.891 31.843-11.35 8.45-11.916 5.851-25.877-4.409-33.154z" fill="#F5F5F5"/>
   <circle cx="82.775" cy="52.467" r="39.764"></circle>
   <path d="m214.12 207.62c12.145 0 21.999-9.895 21.999-22.016 0-12.246-9.854-22.021-21.999-22.021-12.306 0-22.179 9.775-22.179 22.021 1e-3 12.122 9.873 22.016 22.179 22.016z" fill="#F5F5F5"/>
  </g>
 </g>
</svg>