<svg xmlns="http://www.w3.org/2000/svg" version="1.1" viewBox="0 0 314.27 405.35" width="32" height="41">
 <path d="m0 0v314.29h98.864l58.259 91.058 58.269-91.058h98.874v-314.29z" fill="#FF6F00" fill-opacity="1"/>
 <path d="m112.13 55.292c-30.331 0-54.998 24.665-54.998 54.998v5h19.999v-5c0-19.665 15.332-34.998 34.998-34.998 16.048 0 29.137 10.243 33.437 24.688-1.3947-0.72578-2.8863-1.3096-4.3746-1.8749-1.062-0.41624-2.0222-0.92122-3.125-1.2499-0.41518-0.12044-0.82931-0.20495-1.2498-0.31271-3.0865-0.81241-6.3575-1.25-9.6876-1.25-13.333 0-25.444 6.6345-33.124 16.875l16.249 12.187c4.3199-5.7596 10.208-9.0621 16.875-9.0621 11.902 0 19.999 8.0977 19.999 19.999v9.9996h19.999v-9.9996c0-11.902 8.0978-19.999 19.999-19.999 5 0 9.6462 1.9537 13.438 5.3124 1.2634 1.1195 2.3574 2.31 3.4375 3.7498l16.249-12.187c-7.6798-10.24-19.791-16.875-33.124-16.875-2.5398 0-5.0952 0.13945-7.4993 0.62542-0.7617 0.14156-1.4416 0.44054-2.1876 0.62542-0.65605 0.17326-1.2316 0.42047-1.8748 0.62436-1.9355 0.58105-3.8244 1.3352-5.6251 2.1876-0.41202 0.19967-0.84516 0.41413-1.2498 0.62542 4.2993-14.444 17.387-24.688 33.437-24.688 19.665 0 34.998 15.332 34.998 34.999v5h19.999v-5c0-30.331-24.665-54.998-54.998-54.998-18.628 0-34.784 9.5128-44.686 23.75-9.9382-14.317-26.597-23.75-45.311-23.75zm-14.999 99.996v19.999h12.499c6.3801 14.437 24.913 29.998 47.499 29.998 22.586 0 41.118-15.563 47.498-29.998h12.499v-19.999zm39.999 59.998v9.9997h-80l5 15.937c2.9998 8 10.062 14.061 19.061 14.061h151.88c8.9995 0 16.061-6.0621 19.061-14.061l4.9998-15.937h-80v-9.9997h-39.999z" fill="#F5F5F5" stroke-width="9.9997"/>
</svg>