<svg xmlns="http://www.w3.org/2000/svg" version="1.1" viewBox="0 0 314.27 405.35" width="32" height="41">
 <path d="m0 0v314.29h98.864l58.259 91.058 58.269-91.058h98.874v-314.29z" fill="#FF6F00" fill-opacity="1"/>
 <g transform="matrix(.67677 0 0 .67677 57.132 57.521)" fill="#F5F5F5">
  <path d="m147.76 44.074c12.801 0 23.858-8.162 27.83-20.169-7.578 2.086-17.237 3.345-27.83 3.345-10.592 0-20.251-1.259-27.828-3.345 3.97 12.006 15.026 20.169 27.828 20.169z" fill="#F5F5F5"/>
  <path d="m295.16 58.839c-0.608-1.706-1.873-3.109-3.521-3.873l-56.343-26.01c-11.985-4.06-24.195-7.267-36.524-9.611-0.434-0.085-0.866-0.126-1.292-0.126-3.052 0-5.785 2.107-6.465 5.197-4.502 19.82-22.047 34.659-43.251 34.659-21.203 0-38.749-14.838-43.25-34.659-0.688-3.09-3.416-5.197-6.466-5.197-0.426 0-0.858 0.041-1.292 0.126-12.328 2.344-24.538 5.551-36.542 9.611l-56.323 26.009c-1.658 0.764-2.932 2.167-3.511 3.873-0.599 1.726-0.491 3.589 0.353 5.217l24.46 48.272c1.145 2.291 3.474 3.666 5.938 3.666 0.636 0 1.281-0.092 1.917-0.283l27.167-8.052v161.97c0 3.678 3.001 6.678 6.689 6.678h161.72c3.678 0 6.67-3.001 6.67-6.678v-161.97l27.186 8.052c0.636 0.191 1.28 0.283 1.915 0.283 2.459 0 4.779-1.375 5.94-3.666l24.469-48.272c0.824-1.629 0.942-3.492 0.353-5.218z" fill="#F5F5F5"/>
 </g>
</svg>