<svg xmlns="http://www.w3.org/2000/svg" version="1.1" viewBox="0 0 314.27 405.35" width="32" height="41">
 <path d="m0 0v314.29h98.864l58.259 91.058 58.269-91.058h98.874v-314.29z" fill="#FF6F00" fill-opacity="1"/>
 <g transform="matrix(22.489 0 0 22.489 9.459 8.1173)" fill="#F5F5F5">
  <path d="m10.667 5.5035c-0.15996 0-0.31212 0.031851-0.45205 0.088044-0.0057 0.0021-0.0097 0.00395-0.0145 0.00631-0.02354 0.00964-0.04559 0.021575-0.06852 0.03268-0.05291 0.030596-0.10947 0.074823-0.20099 0.16009 0-0.21448-0.01451-0.39182-0.037977-0.54079-0.017275-0.091664-0.16666-0.74095-0.92874-0.74095h-4.9211c-0.22547 0.00508-1.0339 0.079-1.0339 0.89172v2.9699c0 0.12602 0.00767 0.30572 0.036185 0.52688v0.00239c0.061768 0.5038 0.23131 1.2186 0.66834 1.9849 0.11322 0.33673 0.43202 0.57847 0.80743 0.57847h4.0309c0.35747 0 0.66347-0.22115 0.78949-0.53216 0-0.0029 0.00221-0.0029 0.00221-0.0059 0.010841-0.01868 0.019908-0.03661 0.030454-0.0553 0.33412-0.62866 0.52245-1.5271 0.55388-1.7702 0.00269 0.015006 0.036391 0.02851 0.070632 0.039103 2.757e-4 -8.932e-4 2.757e-4 -0.00211 5.513e-4 -0.00221 0.081823 0.027003 0.16789 0.04534 0.25885 0.04534 0.24147 0 0.46054-0.10543 0.60965-0.27262 0.03804-0.051195 0.07404-0.10531 0.11033-0.15413 0.66098-0.93317 0.84569-1.5169 0.89729-1.7815 0.0031-0.01029 0.0062-0.020595 0.0062-0.02836 0.0031-0.012799 0.0031-0.023091 0.0059-0.035888 0.0031-0.023091 0.0062-0.04644 0.0084-0.069536 0.0035-0.025588 0.0035-0.03839 0.0035-0.03839 0.0031-0.02335 0.0031-0.046438 0.0031-0.069541-2e-3 -0.67836-0.55481-1.2288-1.2336-1.2288zm-5.9794 3.4349c-0.2302-0.57793-0.040893-1.3944 0.53203-2.0477 0.62745-0.71535 1.5082-0.99896 2.127-0.73691 0.20613 0.11419 0.15717 0.2857 0.1562 0.28945-0.13102 0.26887-0.47542 0.82899-1.2568 1.3475-0.70673 0.46971-1.0741 0.95946-1.244 1.2415 0 0-0.15773 0.18527-0.31435-0.093887zm2.8322-0.043814c-0.57543 0.6561-1.3646 0.94944-1.9689 0.79116-0.32464-0.11072-0.24703-0.38862-0.24703-0.38918 0.13784-0.25134 0.42479-0.68712 1.1115-1.1983 0.90702-0.67529 1.2472-1.1207 1.4122-1.3845 0 0 0.094864-0.093471 0.17094 0.021575 0.30545 0.58071 0.13242 1.4624-0.47875 2.1593zm3.8296-1.9627s0 0.00663-0.0016 0.020179c-0.0016 0.011961-0.0033 0.024081-0.0047 0.036188-0.0016 0.0063-0.0016 0.011965-0.0029 0.018645 0 0.00395-0.0016 0.00951-0.0032 0.01476-0.02704 0.13756-0.12279 0.44078-0.46621 0.92566-0.01002 0.012507-0.01877 0.026167-0.02812 0.039642-0.19735 0.29568-0.42254 0.61559-0.61546 0.59139-0.03486-0.00417-0.06519-0.015432-0.09405-0.029082-0.014648-0.012666-0.20276-0.17276-0.20276-0.48502v-1.1408c0-0.32367 0.36707-0.5337 0.48571-0.59295 0.0068-0.00338 0.0119-0.00628 0.01839-0.00964 0.01251-0.00629 0.02085-0.00978 0.02085-0.00978l0.0013 0.0021c0.07794-0.034224 0.16302-0.055779 0.2537-0.055779 0.35288 0 0.6401 0.28625 0.6401 0.63871 2.74e-4 0.011967 2.74e-4 0.024084-0.0013 0.036018z" stroke-width=".13909" fill="#F5F5F5"/>
  <g stroke-width=".030336" fill="#F5F5F5">
   <path d="m6.3924 4.1485c0.029308 0.019927 0.063571 0.030396 0.099174 0.030396h6.134e-4c0.097532 0 0.17689-0.079282 0.17689-0.17681 0-0.016528-0.00268-0.032916-0.00654-0.048788-0.082234-0.35868-0.044132-0.64652 0.11271-0.85554 0.19671-0.26207 0.28377-0.59865 0.23292-0.90029-0.045142-0.26867-0.18954-0.49197-0.41731-0.64547-0.059064-0.040074-0.14033-0.039893-0.19952 7.565e-4 -0.060247 0.041466-0.088491 0.1144-0.071868 0.18605 0.088528 0.37769 0.00739 0.61814-0.19582 0.98366-0.13217 0.23775-0.18614 0.50514-0.15192 0.75298 0.038988 0.28171 0.18463 0.51461 0.42068 0.67305z" fill="#F5F5F5"/>
   <path d="m7.8807 4.0315c0.027692 0.01894 0.060022 0.028933 0.093556 0.028933h1.872e-4c0.091733 0 0.16639-0.074658 0.16639-0.16642 0-0.015176-0.00268-0.0302-0.00629-0.044818-0.057151-0.25239-0.031149-0.45361 0.077298-0.59814 0.15044-0.20041 0.21696-0.45823 0.17795-0.68958-0.034845-0.20747-0.14637-0.37994-0.32238-0.49868-0.055401-0.037429-0.13048-0.038004-0.18791 0.00109-0.056089 0.038888-0.08297 0.10951-0.067164 0.17477 0.062765 0.26766 0.00746 0.43139-0.14037 0.6971-0.10102 0.18172-0.14219 0.38634-0.11589 0.5761 0.030026 0.2176 0.14258 0.39749 0.3246 0.51963z" fill="#F5F5F5"/>
   <path d="m4.9157 4.0315c0.027694 0.01894 0.060027 0.028933 0.093558 0.028933h1.598e-4c0.091766 0 0.16642-0.074658 0.16642-0.16642 0-0.015176-0.0025-0.0302-0.00631-0.044818-0.057128-0.25237-0.031158-0.4536 0.077269-0.59812 0.15047-0.20038 0.217-0.45821 0.17801-0.68962-0.03485-0.20747-0.14637-0.37993-0.32238-0.49867-0.055429-0.037441-0.13048-0.038014-0.18791 0.00111-0.056093 0.038888-0.082973 0.10951-0.067165 0.17476 0.062767 0.26763 0.00744 0.43136-0.14037 0.6971-0.10102 0.18171-0.14219 0.38633-0.11589 0.57608 0.030034 0.21763 0.14258 0.39753 0.3246 0.51966z" fill="#F5F5F5"/>
  </g>
 </g>
</svg>