<svg xmlns="http://www.w3.org/2000/svg" version="1.1" viewBox="0 0 314.27 405.35" width="32" height="41">
 <path d="m0 0v314.29h98.864l58.259 91.058 58.269-91.058h98.874v-314.29z" fill="#FF6F00" fill-opacity="1"/>
 <g transform="matrix(.39443 0 0 .39443 56.235 54.954)" fill="#F5F5F5">
  <path d="m509.05 333.75c-1.711-1.711-3.901-2.566-6.563-2.566h-100.5c-4.186 0-7.039 1.902-8.565 5.711-1.523 3.617-0.855 6.951 1.995 9.996l28.551 28.548c-12.751 17.323-30.785 31.929-54.101 43.828-23.315 11.898-49.152 19.745-77.516 23.555v-184.73h54.816c4.948 0 9.236-1.812 12.854-5.424 3.613-3.612 5.424-7.898 5.424-12.847v-36.547c0-4.947-1.811-9.229-5.424-12.847-3.617-3.616-7.905-5.424-12.854-5.424h-54.816v-46.536c11.04-6.473 19.89-15.275 26.553-26.409 6.663-11.138 9.996-23.363 9.996-36.691 0-20.174-7.139-37.401-21.412-51.673-14.275-14.277-31.498-21.416-51.675-21.416s-37.404 7.139-51.682 21.416c-14.272 14.272-21.411 31.499-21.411 51.673 0 13.328 3.333 25.553 9.994 36.691 6.662 11.134 15.513 19.936 26.551 26.409v46.536h-54.816c-4.952 0-9.235 1.809-12.85 5.424-3.618 3.617-5.426 7.9-5.426 12.847v36.547c0 4.949 1.809 9.235 5.426 12.847 3.619 3.616 7.902 5.424 12.85 5.424h54.816v184.73c-28.359-3.812-54.2-11.663-77.514-23.559-23.315-11.902-41.352-26.508-54.103-43.831l28.549-28.541c2.853-3.053 3.521-6.379 1.997-9.999-1.521-3.812-4.377-5.715-8.564-5.715h-100.5c-2.666 0-4.856 0.855-6.567 2.573-1.709 1.711-2.568 3.901-2.568 6.57v100.5c0 4.182 1.903 7.043 5.708 8.562 1.525 0.38 2.667 0.568 3.427 0.568 2.667 0 4.854-0.856 6.567-2.561l26.552-26.556c22.648 27.217 52.96 48.772 90.932 64.665s78.847 23.846 122.63 23.846c43.776 0 84.651-7.953 122.62-23.846 37.973-15.893 68.286-37.445 90.934-64.665l26.556 26.556c1.903 1.704 4.086 2.561 6.564 2.561 0.76 0 1.902-0.192 3.429-0.568 3.806-1.52 5.708-4.381 5.708-8.562v-100.5c0-2.669-0.859-4.859-2.573-6.57zm-240.39-245.54c-3.613 3.617-7.895 5.43-12.847 5.43s-9.232-1.812-12.85-5.43c-3.617-3.612-5.424-7.898-5.424-12.847 0-4.947 1.807-9.229 5.424-12.847 3.621-3.616 7.902-5.424 12.85-5.424s9.233 1.809 12.847 5.424c3.614 3.617 5.428 7.9 5.428 12.847-1e-3 4.948-1.814 9.235-5.428 12.847z" fill="#F5F5F5"/>
 </g>
</svg>