<svg xmlns="http://www.w3.org/2000/svg" version="1.1" viewBox="0 0 314.27 405.35" width="32" height="41">
 <path d="m0 0v314.29h98.864l58.259 91.058 58.269-91.058h98.874v-314.29z" fill="#FF6F00" fill-opacity="1"/>
 <g transform="matrix(.39106 0 0 .39106 57.02 55.25)" fill="#F5F5F5">
  <path d="m443.67 120.66h17.892v-30.082h-25.06v-25.402h-14.654l-0.387-0.984-0.387 0.984h-14.654v25.402h-107.77c-4.48-12.955-14.698-23.25-27.608-27.829v-32.669h29.079v-30.082h-88.241v30.082h29.079v32.669c-12.799 4.539-22.956 14.696-27.495 27.495h-107.88v-25.068h-14.654l-0.387-0.984-0.387 0.984h-14.655v25.068h-27.065v30.082h20.029l-68.176 173.34v2.852c0 49.766 40.487 90.254 90.253 90.254 49.767 0 90.254-40.487 90.254-90.254v-2.852l-68.176-173.34h100.84c4.539 12.799 14.696 22.956 27.495 27.495v273.93h-126.34v60.164h-31.085v30.083h344.94v-30.082h-31.085v-60.164h-126.34v-273.93c12.688-4.5 22.785-14.518 27.382-27.16h100.83l-68.044 173v2.852c0 49.766 40.487 90.254 90.254 90.254 49.766 0 90.253-40.487 90.253-90.254v-2.852l-68.044-173zm-299.99 160.81h-106.27l53.133-135.1 53.136 135.1zm224.65 0 53.135-135.1 53.134 135.1h-106.27z" fill="#F5F5F5"/>
 </g>
</svg>