<svg xmlns="http://www.w3.org/2000/svg" version="1.1" viewBox="0 0 314.27 405.35" width="32" height="41">
 <path d="m0 0v314.29h98.864l58.259 91.058 58.269-91.058h98.874v-314.29z" fill="#FF6F00" fill-opacity="1"/>
 <g transform="matrix(1.3333 0 0 1.3333 -84.68 -86.407)" fill="#F5F5F5" stroke-width=".29297">
  <rect x="106.61" y="135.45" width="37.5" height="9.375"></rect>
  <rect x="106.61" y="107.33" width="37.5" height="18.75"></rect>
  <path d="m218.86 191.7v-28.125l-37.5 28.125v-28.125l-37.5 28.125v-37.5h-37.5v103.12h150v-93.75zm-46.875 37.5h-18.75v-9.375h18.75zm0-18.75h-18.75v-9.375h18.75zm37.5 18.75h-18.75v-9.375h18.75zm0-18.75h-18.75v-9.375h18.75zm37.5 18.75h-18.75v-9.375h18.75zm0-18.75h-18.75v-9.375h18.75z" fill="#F5F5F5"/>
 </g>
</svg>