<svg xmlns="http://www.w3.org/2000/svg" version="1.1" viewBox="0 0 314.27 405.35" width="32" height="41">
 <path d="m0 0v314.29h98.864l58.259 91.058 58.269-91.058h98.874v-314.29z" fill="#FF6F00" fill-opacity="1"/>
 <path d="m151.45 54.679v9.0685c-23.736 1.9957-44.474 14.662-57.409 33.176l-7.8836-4.551-6.5948 11.419 7.8642 4.5374c-4.7466 10.069-7.4022 21.306-7.4022 33.156s2.6554 23.087 7.4022 33.156l-7.8642 4.5374 6.5948 11.425 7.8836-4.551c7.8721 11.273 18.638 20.375 31.216 26.223l-10.631 29.205h-57.494v13.189h200v-13.189h-55.667l-10.631-29.205c12.578-5.8474 23.351-14.951 31.222-26.223l7.8836 4.551 6.588-11.425-7.8573-4.5374c4.7465-10.069 7.4021-21.306 7.4021-33.156 0-11.849-2.6557-23.087-7.4021-33.156l7.8573-4.5374-6.588-11.419-7.8836 4.551c-12.928-18.512-33.671-31.18-57.409-33.176v-9.0685zm0 22.31v34.679c2.1248-0.46964 4.3306-0.72992 6.5948-0.72992 2.2636 0 4.4637 0.26028 6.588 0.72992v-34.679c18.869 1.914 35.369 11.955 45.941 26.555l-30.012 17.33c2.9695 3.2416 5.2502 7.1246 6.6086 11.412l30.018-17.336c3.6499 8.1041 5.6833 17.085 5.6833 26.535 0 9.449-2.0329 18.439-5.6833 26.542l-30.018-17.336c-1.3582 4.2872-3.6389 8.1701-6.6086 11.412l30.012 17.33c-6.2622 8.6453-14.601 15.695-24.282 20.402l-11.861-32.589c-3.6723 2.3458-7.8773 3.9254-12.389 4.5186l11.861 32.59c-5.0787 1.283-10.393 1.9658-15.865 1.9658-5.4717 0-10.78-0.68286-15.858-1.9658l11.861-32.59c-4.5121-0.59354-8.7164-2.1728-12.389-4.5186l-11.862 32.589c-9.6809-4.7062-18.02-11.756-24.282-20.402l30.019-17.33c-2.9694-3.2423-5.2497-7.1247-6.6079-11.412l-30.024 17.336c-3.6499-8.1035-5.6834-17.092-5.6834-26.542 0-9.4491 2.0333-18.43 5.6834-26.535l30.024 17.336c1.3582-4.2877 3.6385-8.1707 6.6079-11.412l-30.019-17.33c10.574-14.599 27.074-24.64 45.941-26.555zm6.5948 47.14c-9.5728 0-17.362 7.7839-17.362 17.355 0 9.5733 7.7901 17.363 17.362 17.363 9.5722 0 17.355-7.7901 17.355-17.363 0-9.5716-7.7827-17.355-17.355-17.355zm-20.397 92.662c4.456 1.2085 9.0691 2.0304 13.802 2.4285v9.0753h13.189v-9.0753c4.732-0.39762 9.3454-1.2199 13.802-2.4285l8.9842 24.687h-58.759z" fill="#F5F5F5" stroke-width=".43954"/>
</svg>