<svg xmlns="http://www.w3.org/2000/svg" version="1.1" viewBox="0 0 314.27 405.35" width="32" height="41">
 <path d="m0 0v314.29h98.864l58.259 91.058 58.269-91.058h98.874v-314.29z" fill="#FF6F00" fill-opacity="1"/>
 <path d="m113.6 49.947c-12.383 0-22.134 9.7517-22.134 22.134v152.86h129.16v-152.86c0-12.383-9.7523-22.134-22.134-22.134zm6.6406 20.833h71.618c4.1668 0 7.9429 3.7762 7.9429 7.9429v42.447c0 4.1665-3.776 7.9429-7.9429 7.9429h-71.618c-4.1667 0-7.9429-3.7762-7.9429-7.9429v-42.447c0-4.1667 3.7762-7.9429 7.9429-7.9429zm111.72 1.172-5.9894 5.9894 23.828 23.697v34.114c0 4.729 1.9635 9.6458 5.3384 13.021l19.662 19.531v31.641c0 9.346-7.3208 16.667-16.667 16.667s-16.667-7.3208-16.667-16.667v-20.833c0-11.075-6.8707-20.2-16.667-23.568v9.1148c4.9957 2.8498 8.3337 8.1776 8.3337 14.453v20.833c0 14.017 10.983 25 25 25 14.017 0 25-10.983 25-25v-69.14c0-4.729-1.9636-9.6458-5.3387-13.021zm-144.66 161.32c-2.3001 0-4.1667 1.8628-4.1667 4.1669v16.667c0 2.3041 1.8666 4.1665 4.1667 4.1665h137.51c2.3044 0 4.1668-1.8625 4.1668-4.1665v-16.667c0-2.3043-1.8625-4.1669-4.1668-4.1669z" fill="#F5F5F5" stroke-width="4.1667"/>
</svg>