<svg xmlns="http://www.w3.org/2000/svg" version="1.1" viewBox="0 0 314.27 405.35" width="32" height="41">
 <path d="m0 0v314.29h98.864l58.259 91.058 58.269-91.058h98.874v-314.29z" fill="#FF6F00" fill-opacity="1"/>
 <path d="m102.45 252.58c-0.75731-0.9115-1.5569-4.8458-1.7775-8.7424l-0.40123-7.0849-12.109-0.67212c-11.664-0.64657-12.247-0.82631-15.867-4.877-6.5301-7.3088-5.5543-11.18 7.9061-31.365l11.661-17.486-8.1001-0.64742c-11.64-0.931-11.451-2.5051 2.853-23.877l11.76-17.568h-9.478c-16.742 0-16.627-2.5005 1.337-29.168 21.261-31.561 21.665-31.567 42.672-0.61505 7.9748 11.752 14.533 22.604 14.572 24.121 0.11075 4.2736-2.5166 5.5073-12.617 5.9247l-9.3336 0.3859 11.684 17.486c6.8701 10.28 11.541 18.554 11.335 20.076-0.30497 2.2547-1.4816 2.6401-9.0763 2.9731l-8.7267 0.38249 11.423 17.103c6.2825 9.4064 11.762 18.428 12.175 20.048 1.1831 4.6308-1.4056 11.754-5.1703 14.228-2.3643 1.5538-7.0723 2.456-15.155 2.9023l-11.725 0.64742-0.40123 7.085c-0.22064 3.8957-1.0206 7.8307-1.7775 8.7428-0.82631 0.99591-4.3532 1.6581-8.8303 1.6581-4.4772 0-8.004-0.6619-8.8303-1.6581zm66.736 0.84675c-0.50346-0.5026-0.91491-9.7298-0.91491-20.505v-19.589l-6.476-10.256c-3.5621-5.6407-6.4766-10.645-6.4766-11.122 0-0.47619 0.8747-2.9586 1.9432-5.516 3.1908-7.6372 2.5128-17.554-1.7446-25.523l-3.6876-6.9011 3.6876-7.0097c2.8757-5.4669 3.6871-8.7362 3.6871-14.856 0-7.7186-0.20275-8.1607-12.407-27.02-13.874-21.44-14.223-23.13-5.376-26.079 4.5368-1.5121 5.5539-2.4959 6.2871-6.0814 1.1636-5.6893 4.7044-10.259 11.526-14.878 9.4175-6.375 20.386-4.7565 28.971 4.2747 2.059 2.166 5.5564 4.3152 7.7712 4.7759 5.9647 1.2405 14.118 6.3194 18.916 11.783 6.5321 7.4401 9.0071 14.091 9.0864 24.42l0.0682 9.0668 5.7822 3.5089c14.757 8.954 20.404 30.247 12.47 47.017-3.6212 7.6539-10.476 15.014-16.569 17.79-2.6303 1.1987-2.9779 2.0446-2.3069 5.6191 1.1129 5.9338-2.4754 17.085-7.4175 23.051-4.8787 5.8899-15.282 11.136-22.117 11.153l-4.8184 9e-3 -0.36205 16.514-0.36289 16.514-9.1228 0.37482c-5.0178 0.20615-9.5347-0.0341-10.037-0.54008z" fill="#F5F5F5" stroke-width="1.2952"/>
</svg>