<svg xmlns="http://www.w3.org/2000/svg" version="1.1" viewBox="0 0 314.27 405.35" width="32" height="41">
 <path d="m0 0v314.29h98.864l58.259 91.058 58.269-91.058h98.874v-314.29z" fill="#FF6F00" fill-opacity="1"/>
 <g transform="matrix(.54456 0 0 .54456 57.134 52.091)" fill="#F5F5F5">
  <path d="m125.65 121.92c-2.417-6.508-8.949-10.185-15.59-10.185-3.315 0-3.621 0.085-5.595 0.085h-59.304c-7.584 0-13.17 3.591-15.587 10.1l-28.676 87.206c-2.732 7.358 0.96 15.561 8.245 18.32 7.286 2.76 15.407-0.969 18.14-8.326l7.624-20.527s0.544-2.07 0.544 6.967v121.04c0 10.582 8.494 19.16 18.973 19.16s18.973-8.578 18.973-19.16v-79.075s-0.092-0.699 0.644-0.699h7.124c0.703 0 0.664 0.699 0.664 0.699v79.075c0 10.582 8.494 19.16 18.973 19.16s18.973-8.578 18.973-19.16v-121.04c0-9.182 0.797-6.289 0.797-6.289l7.372 19.851c2.731 7.358 10.854 11.086 18.14 8.326 7.285-2.761 10.978-10.962 8.245-18.319z" fill="#F5F5F5"/>
  <ellipse cx="77.991" cy="61.825" rx="40.736" ry="40.317"/>
  <circle cx="285.82" cy="61.599" r="40.736"></circle>
  <path d="m365.92 207.19-34.758-84.667c-1.988-4.272-3.747-9.997-11.914-9.997h-61.687c-8.146 0-12.396 5.308-14.727 10.089l-36.103 84.027c-3.438 7.055-0.566 15.578 6.411 19.039 6.982 3.46 15.43 0.547 18.868-6.51l2.717-5.571s0.844-1.503 0.527 0.159c-1.965 10.348-7.391 41.475-7.391 41.475-1.318 6.477 3.009 11.777 9.619 11.777h15.722c1.125 0 0.925 0.848 0.925 0.848v62.566c0 10.479 6.526 15.973 14.58 15.973 8.051 0 14.581-5.494 14.581-15.973v-62.816s-0.033-0.62 0.623-0.598c0.847 0.027 2.991 4e-3 3.952 4e-3 0.548 0 0.479 0.66 0.479 0.66v62.75c0 10.479 6.53 15.973 14.584 15.973 8.051 0 14.58-5.494 14.58-15.973v-62.399s-0.096-1.015 1.112-1.015h16.912c6.609 0 11.043-5.32 9.851-11.822 0 0-5.438-33.385-6.887-42.48-0.415-2.607 3.916 6.65 3.916 6.65 3.312 7.115 9.708 10.086 16.749 6.753 7.047-3.334 10.071-11.804 6.759-18.922z" fill="#F5F5F5"/>
  <path d="m190.44 338.75c0 3.85-3.149 7-7 7h-3c-3.85 0-7-3.15-7-7v-306.64c0-3.85 3.15-7 7-7h3c3.85 0 7 3.15 7 7z" fill="#F5F5F5"/>
 </g>
</svg>