<svg xmlns="http://www.w3.org/2000/svg" version="1.1" viewBox="0 0 314.27 405.35" width="32" height="41">
 <path d="m0 0v314.29h98.864l58.259 91.058 58.269-91.058h98.874v-314.29z" fill="#FF6F00" fill-opacity="1"/>
 <g transform="matrix(3.2383 0 0 3.2383 67.134 52.588)" fill="#F5F5F5">
  <path d="m45.655 43.718s-0.038 0.04-0.107 0.107c-3.965-1.587-8.39-0.422-11.851-3.527-3.498-3.137-6.139-8.059-9.034-11.783-3.185-4.1-6.469-8.122-9.807-12.097-2.375-2.826-4.553-6.097-7.6-8.239-0.431-0.846-0.821-1.197-1.513-0.698-0.32 0.072-0.567 0.328-0.67 0.64-0.393 0.445-0.861 1.071-1.441 1.917-3.944 5.765-4.551 10.771-2.427 16.537 2.124 5.765 1.669 26.094 1.669 26.094s0.911 1.213 1.821 0.606c0.911-0.606-1.213-19.874 0.456-22.15 0 0 7.13-3.945 13.199 9.558 6.069 13.502 8.951 13.805 13.199 13.805 4.249 0 16.689 0.304 25.791-1.366 9.101-1.668 3.639-5.005-11.685-9.404zm-13.804 2.275c-5.462-6.372-18.661-28.37-21.998-32.921-0.061-0.082-0.117-0.165-0.174-0.247 1.79 2.008 3.384 4.277 5.002 6.203 4.026 4.793 7.906 9.709 11.707 14.681 2.253 2.947 4.195 6.237 6.973 8.728 3.055 2.741 7.051 1.677 10.633 2.753-2.714 2.149-8.185 5.422-12.143 0.803z" fill="#F5F5F5"/>
 </g>
</svg>