<svg xmlns="http://www.w3.org/2000/svg" version="1.1" viewBox="0 0 314.27 405.35" width="32" height="41">
 <path d="m0 0v314.29h98.864l58.259 91.058 58.269-91.058h98.874v-314.29z" fill="#FF6F00" fill-opacity="1"/>
 <g transform="matrix(.72566 0 0 .72566 57.133 56.008)" fill="#F5F5F5">
  <path d="m13.56 151.36h16.979v27.293c0 8.728 7.083 15.812 15.814 15.812 2.737 0 5.276-0.761 7.517-1.988v7.658c0 8.737 7.084 15.816 15.819 15.816 8.728 0 15.814-7.084 15.814-15.816v-48.775h100.62v48.775c0 8.737 7.08 15.816 15.816 15.816 8.732 0 15.812-7.084 15.812-15.816v-7.668c2.244 1.232 4.788 1.988 7.522 1.988 8.737 0 15.817-7.075 15.817-15.812v-27.288h20.969c7.491 0 13.554-6.062 13.554-13.553 0-7.489-6.062-13.554-13.554-13.554h-20.969v-27.283c0-8.732-7.08-15.814-15.817-15.814-2.734 0-5.278 0.76-7.522 1.988v-7.666c0-8.734-7.08-15.812-15.812-15.812-8.736 0-15.816 7.082-15.816 15.812v48.775h-100.62v-48.769c0-8.735-7.082-15.812-15.814-15.812-8.729 0-15.819 7.083-15.819 15.812v7.661c-2.245-1.228-4.779-1.983-7.517-1.983-8.732 0-15.814 7.078-15.814 15.814v27.284h-16.979c-7.491 0-13.56 6.069-13.56 13.554 0 7.484 6.069 13.551 13.56 13.551z" fill="#F5F5F5"/>
 </g>
</svg>