<svg xmlns="http://www.w3.org/2000/svg" version="1.1" viewBox="0 0 314.27 405.35" width="32" height="41">
 <path d="m0 0v314.29h98.864l58.259 91.058 58.269-91.058h98.874v-314.29z" fill="#FF6F00" fill-opacity="1"/>
 <g transform="matrix(1.3467 0 0 1.3467 57.133 55.113)" fill="#F5F5F5">
  <polygon points="37.73 55.841 39.542 111.38 24.148 111.38 25.656 55.841"></polygon>
  <polygon points="133.12 114.4 133.12 120.74 142.17 120.74 142.17 129.79 148.51 129.79 148.51 136.13 0 136.13 0 129.79 6.338 129.79 6.338 120.74 15.394 120.74 15.394 114.4"></polygon>
  <polygon points="139.15 39.541 74.253 12.375 9.357 39.541 9.357 43.466 139.15 43.466"></polygon>
  <rect x="21.732" y="46.484" width="105.04" height="6.035"></rect>
  <polygon points="122.55 55.841 124.36 111.38 108.96 111.38 110.48 55.841"></polygon>
  <polygon points="94.477 55.841 96.289 111.38 80.592 111.38 82.102 55.841"></polygon>
  <polygon points="66.103 55.841 67.914 111.38 52.218 111.38 54.029 55.841"></polygon>
 </g>
</svg>