<svg xmlns="http://www.w3.org/2000/svg" version="1.1" viewBox="0 0 314.27 405.35" width="32" height="41">
 <path d="m0 0v314.29h98.864l58.259 91.058 58.269-91.058h98.874v-314.29z" fill="#FF6F00" fill-opacity="1"/>
 <g transform="matrix(.39091 0 0 .39091 57.133 56.29)" fill="#F5F5F5">
  <path d="m18.842 128.48c-12.562 12.563-18.842 27.6-18.842 45.108v237.54c0 17.512 6.28 32.549 18.842 45.111 12.563 12.562 27.6 18.843 45.111 18.843h9.136v-365.45h-9.136c-17.515 0-32.551 6.284-45.111 18.846z" fill="#F5F5F5"/>
  <path d="m365.45 63.953c0-7.614-2.663-14.084-7.994-19.414-5.325-5.33-11.8-7.993-19.411-7.993h-164.45c-7.612 0-14.083 2.663-19.414 7.993-5.33 5.327-7.994 11.799-7.994 19.414v45.679h-45.681v365.45h310.62v-365.45h-45.679v-45.679zm-182.72 9.136h146.18v36.543h-146.18zm182.72 246.68c0 2.67-0.855 4.853-2.567 6.571-1.711 1.707-3.9 2.566-6.563 2.566h-63.953v63.953c0 2.662-0.862 4.853-2.573 6.563-1.704 1.711-3.895 2.567-6.561 2.567h-54.819c-2.667 0-4.854-0.856-6.567-2.567-1.711-1.711-2.568-3.901-2.568-6.563v-63.953h-63.953c-2.668 0-4.854-0.859-6.567-2.566-1.714-1.719-2.57-3.901-2.57-6.571v-54.815c0-2.67 0.856-4.859 2.57-6.571 1.709-1.709 3.899-2.564 6.562-2.564h63.953v-63.955c0-2.666 0.856-4.853 2.57-6.567 1.713-1.713 3.899-2.568 6.567-2.568h54.818c2.665 0 4.855 0.855 6.563 2.568 1.711 1.714 2.573 3.901 2.573 6.567v63.954h63.953c2.663 0 4.853 0.855 6.563 2.564 1.708 1.712 2.563 3.901 2.563 6.571v54.815h6e-3z" fill="#F5F5F5"/>
  <path d="m492.78 128.48c-12.563-12.562-27.601-18.846-45.111-18.846h-9.137v365.45h9.137c17.511 0 32.548-6.28 45.111-18.843 12.559-12.562 18.842-27.6 18.842-45.111v-237.54c-1e-3 -17.508-6.284-32.545-18.842-45.108z" fill="#F5F5F5"/>
 </g>
</svg>