<svg xmlns="http://www.w3.org/2000/svg" version="1.1" viewBox="0 0 314.27 405.35" width="32" height="41">
 <path d="m0 0v314.29h98.864l58.259 91.058 58.269-91.058h98.874v-314.29z" fill="#FF6F00" fill-opacity="1"/>
 <g transform="matrix(.37979 0 0 .37979 12.865 3.4165)" fill="#F5F5F5" stroke-width="16.858">
  <path d="m190.11 316.31h-73.553v163.78h73.553l138.98 103.07s25.49 21.376 25.49-0.69119v-371.74c0-17.33-22.422-0.4046-22.422-0.4046z" fill="#F5F5F5"/>
  <path d="m433.76 284.34c-7.3502-7.3165-19.168-7.3165-26.434 0-7.3502 7.3165-7.3502 19.185 0 26.434 24.04 24.124 35.959 55.396 35.993 86.938-0.0337 31.609-11.953 63.084-35.993 87.09-7.3502 7.3165-7.3502 19.151 0 26.518 3.6245 3.6751 8.3954 5.4621 13.234 5.4621 4.7372 0 9.5418-1.787 13.2-5.4621 31.272-31.34 46.984-72.592 46.95-113.61 0.0506-41.05-15.661-82.083-46.95-113.37z" fill="#F5F5F5"/>
  <path d="m484.47 225.42c-7.384-7.3502-19.202-7.3502-26.501 0-7.2491 7.3334-7.2491 19.168 0 26.501 40.426 40.393 60.555 93.058 60.623 145.94-0.0674 53.171-20.112 106.07-60.623 146.7-7.2828 7.3165-7.2491 19.1 0 26.468 3.692 3.574 8.4629 5.4284 13.268 5.4284 4.7709 0 9.5755-1.8544 13.234-5.4284 47.743-47.878 71.513-110.62 71.513-173.17 0-62.342-23.956-124.84-71.513-172.44z" fill="#F5F5F5"/>
  <path d="m546.58 165.07c-7.2828-7.3502-19.134-7.3502-26.468 0-7.2491 7.3165-7.2491 19.185 0 26.434 57.099 57.099 85.607 131.65 85.607 206.43 0 75.003-28.423 149.77-85.607 206.99-7.3165 7.2997-7.2491 19.202 0 26.468 3.692 3.6245 8.4966 5.4284 13.301 5.4284 4.7372 0 9.5081-1.8038 13.166-5.4284 64.433-64.483 96.598-149.11 96.581-233.47 0.0169-84.207-32.317-168.58-96.581-232.85z" fill="#F5F5F5"/>
 </g>
</svg>