<svg xmlns="http://www.w3.org/2000/svg" version="1.1" viewBox="0 0 314.27 405.35" width="32" height="41">
 <path d="m0 0v314.29h98.864l58.259 91.058 58.269-91.058h98.874v-314.29z" fill="#FF6F00" fill-opacity="1"/>
 <g transform="matrix(1.2948 0 0 1.2948 -62.948 -71.486)" fill="#F5F5F5">
  <path d="m163.35 180.41c-1.7625-1.7627-4.6361-1.7627-6.3988 0-1.7631 1.7632-1.7631 4.6354 0 6.3988 1.768 1.7676 4.6315 1.7676 6.3988 0 1.7635-1.7635 1.7635-4.6357 0-6.3988z" stroke-width=".30168" fill="#F5F5F5"/>
  <g transform="matrix(.30168 0 0 .30168 92.303 97.004)" fill="#F5F5F5">
   <path d="m277.92 191.64c-40.944-40.944-107.56-40.93-148.49 0-40.942 40.942-40.942 107.55 0 148.49 39.639 39.639 108.79 39.668 148.49 0 41.054-41.054 41.043-107.45 0-148.49zm-21.21 127.28c-17.549 17.549-46.084 17.549-63.633 0-8.159-8.159-12.129-18.743-12.7-29.443-11.226-0.518-21.744-4.986-29.736-12.979-17.532-17.559-17.605-46.028 0.014-63.647 16.948-16.948 46.597-17.007 63.633 0 7.993 7.993 12.46 18.51 12.979 29.736 10.701 0.571 21.284 4.541 29.443 12.7 17.549 17.549 17.549 46.084 0 63.633z" fill="#F5F5F5"/>
  </g>
  <path d="m150.55 167.62v-0.01c-1.7847-1.7761-4.6401-1.7632-6.3943 0-1.7651 1.7561-1.7822 4.6118-5e-3 6.3988 1.7195 1.7145 4.6847 1.7145 6.3991 0 1.7759-1.7846 1.7631-4.6399 0-6.3944z" stroke-width=".30168" fill="#F5F5F5"/>
  <g transform="matrix(.30168 0 0 .30168 92.738 97.274)" fill="#F5F5F5">
   <path d="m383.99 128.01c-87.715-87.715-230.48-87.715-318.19 0-87.729 87.729-87.729 230.46 0 318.19 87.742 87.742 230.47 87.722 318.19 0 87.729-87.729 87.729-230.46 0-318.19zm-84.858 233.33c-52.747 52.778-138.17 52.775-190.91 0-52.632-52.631-52.632-138.28 0-190.91 52.676-52.646 138.3-52.617 190.91 0 52.778 52.747 52.775 138.17 0 190.91z" fill="#F5F5F5"/>
   <path d="m507.61 4.395c-5.859-5.859-15.352-5.86-21.211 0l-81.193 81.191c-5.859 5.859-5.859 15.352 0 21.211s15.352 5.859 21.211 0l81.193-81.191c5.859-5.859 5.859-15.352 0-21.211z" fill="#F5F5F5"/>
   <path d="m505.5 91.357c-5.859-5.859-15.351-5.859-21.211 0l-41.411 41.396c-5.859 5.859-5.859 15.352 0 21.211s15.352 5.859 21.211 0l41.411-41.396c5.859-5.859 5.859-15.352 0-21.211z" fill="#F5F5F5"/>
   <path d="m420.64 6.499c-5.859-5.859-15.352-5.859-21.211 0l-41.367 41.367c-5.859 5.859-5.859 15.352 0 21.211s15.351 5.859 21.211 0l41.367-41.367c5.859-5.859 5.859-15.352 0-21.211z" fill="#F5F5F5"/>
  </g>
 </g>
</svg>