<svg xmlns="http://www.w3.org/2000/svg" version="1.1" viewBox="0 0 314.27 405.35" width="32" height="41">
 <path d="m0 0v314.29h98.864l58.259 91.058 58.269-91.058h98.874v-314.29z" fill="#FF6F00" fill-opacity="1"/>
 <g transform="matrix(.39063 0 0 .39063 57.132 57.423)" fill="#F5F5F5">
  <path d="m400 64h-288c-26.51 0-48 21.49-48 48v16h384v-16c0-26.51-21.49-48-48-48zm-83.84-32 7.059 50.5h-134.44l7.057-50.5h120.32m3.84-32h-128c-13.2 0-25.495 10.696-27.321 23.769l-9.357 66.962c-1.827 13.073 7.478 23.769 20.678 23.769h160c13.199 0 22.506-10.696 20.68-23.769l-9.357-66.962c-1.829-13.073-14.124-23.769-27.323-23.769zm88 160h-304c-17.6 0-30.696 14.341-29.103 31.869l26.206 288.26c1.593 17.527 17.297 31.868 34.897 31.868h240c17.6 0 33.305-14.341 34.896-31.868l26.205-288.26c1.594-17.528-11.501-31.869-29.101-31.869zm-216 288h-48l-16-224h64zm96 0h-64v-224h64zm80 0h-48v-224h64z" fill="#F5F5F5"/>
 </g>
</svg>